<svg viewBox="0 0 800 800" xmlns="http://www.w3.org/2000/svg"><path d="M259.0023271143551,352.60704822954233 L267.11141250917314,349.35561008767587 M259.0023271143551,352.60704822954233 L258.721486003357,263.55708154190876 M266.84047124677846,260.30968047410306 L258.721486003357,263.55708154190876 M267.11141250917314,349.35561008767587 L266.84047124677846,260.30968047410306 M468.7107691960334,525.4479828687885 L363.5288878411759,438.75746068396967 M363.5288878411759,438.75746068396967 L311.17072763769806,395.6040555019939 M311.17072763769806,395.6040555019939 L259.0023271143551,352.60704822954233 M468.7107691960334,525.4479828687885 L475.83652266996717,521.3389535180311 M475.83652266996717,521.3389535180311 L371.19049826175285,435.1137152103089 M371.19049826175285,435.1137152103089 L267.11141250917314,349.35561008767587 M468.6851965818086,436.18443334016877 L468.7107691960334,525.4479828687885 M468.6851965818086,436.18443334016877 L363.37497736129865,349.6007857117787 M363.37497736129865,349.6007857117787 L310.95316090846126,306.500769278236 M310.95316090846126,306.500769278236 L258.721486003357,263.55708154190876 M475.81967136549207,432.0804583333261 L371.04595506116607,345.96154339544586 M371.04595506116607,345.96154339544586 L266.84047124677846,260.30968047410306 M475.81967136549207,432.0804583333261 L468.6851965818086,436.18443334016877 M475.83652266996717,521.3389535180311 L475.81967136549207,432.0804583333261" stroke="black"  stroke-width="4"  fill="red"/>
<path d="M329.32326749831714,646.4200316277525 L327.83743229420156,647.2777836770367 M327.83743229420156,647.2777836770367 L327.548618147138,517.258680943752 M329.03711276435024,516.4024545065174 L327.548618147138,517.258680943752 M329.03711276435024,516.4024545065174 L329.32326749831714,646.4200316277525 M331.345401434516,649.3132881267547 L329.32326749831714,646.4200316277525 M327.83743229420156,647.2777836770367 L331.345401434516,649.3132881267547 M331.345401434516,649.3132881267547 L331.0628343553732,519.2905652986008 M327.548618147138,517.258680943752 L331.0628343553732,519.2905652986008 M331.0628343553732,519.2905652986008 L329.03711276435024,516.4024545065174" stroke="black"  stroke-width="4"  fill="red"/>
<path d="M748.9847054993472,525.5610350268778 L647.0841644941379,467.0214282806827 M433.2467582693437,708.4417060155748 L748.9847054993472,525.5610350268778 M331.345401434516,649.3132881267547 L433.2467582693437,708.4417060155748 M647.0841644941379,467.0214282806827 L331.345401434516,649.3132881267547 M647.3639174868894,337.32450934635295 L647.0841644941379,467.0214282806827 M749.4462272948654,395.7591370426584 L647.3639174868894,337.32450934635295 M748.9847054993472,525.5610350268778 L749.4462272948654,395.7591370426584 M742.4517304460616,399.7960588253358 L749.4462272948654,395.7591370426584 M742.0306074047094,521.5056385111001 L742.4517304460616,399.7960588253358 M440.29209553794465,696.2388239098995 L742.0306074047094,521.5056385111001 M440.2094222686998,574.2372779584327 L440.29209553794465,696.2388239098995 M433.1459643529045,578.3140010934466 L440.2094222686998,574.2372779584327 M433.2467582693437,708.4417060155748 L433.1459643529045,578.3140010934466 M331.0628343553732,519.2905652986008 L433.1459643529045,578.3140010934466 M331.345401434516,649.3132881267547 L331.0628343553732,519.2905652986008 M640.3693471157382,341.3484424006373 L647.3639174868894,337.32450934635295 M640.1186516597808,462.9595713731291 L640.3693471157382,341.3484424006373 M338.37935943378864,637.130115493709 L640.1186516597808,462.9595713731291 M338.1262546689613,515.2270232984547 L338.37935943378864,637.130115493709 M331.0628343553732,519.2905652986008 L338.1262546689613,515.2270232984547 M640.3693471157382,341.3484424006373 L742.4517304460616,399.7960588253358 M742.0306074047094,521.5056385111001 L640.1186516597808,462.9595713731291 M338.37935943378864,637.130115493709 L440.29209553794465,696.2388239098995 M440.2094222686998,574.2372779584327 L338.1262546689613,515.2270232984547" stroke="black"  stroke-width="4"  fill="red"/>
<path d="M647.0841644941379,467.0214282806827 L276.59101542270287,251.1265878216473 M214.52584587835696,286.5389169194349 L276.59101542270287,251.1265878216473 M214.52584587835696,286.5389169194349 L184.67467945333,269.3577903421173 M184.67467945333,269.3577903421173 L155.51074828943854,252.57220864374523 M155.51074828943854,252.57220864374523 L127.28816654022887,236.3284296748493 M127.28816654022887,236.3284296748493 L100.32587599605205,220.81002345721032 M100.32587599605205,220.81002345721032 L51.327694809288914,248.66582410073522 M331.345401434516,649.3132881267547 L51.327694809288914,248.66582410073522 M647.0841644941379,467.0214282806827 L331.345401434516,649.3132881267547 M647.3639174868894,337.32450934635295 L276.2148397821917,121.8197220254994 M276.59101542270287,251.1265878216473 L276.2148397821917,121.8197220254994 M647.3639174868894,337.32450934635295 L647.0841644941379,467.0214282806827 M276.2148397821917,121.8197220254994 L214.0395908080772,157.1677606951826 M214.11568144912266,177.41214437683246 L214.0395908080772,157.1677606951826 M255.2930697048899,153.9886938011379 L214.11568144912266,177.41214437683246 M255.57721850246074,242.9020559610117 L255.2930697048899,153.9886938011379 M214.4499816724717,266.3547777067381 L255.57721850246074,242.9020559610117 M214.52584587835696,286.5389169194349 L214.4499816724717,266.3547777067381 M214.4499816724717,266.3547777067381 L184.33039572894364,249.0288081938589 M184.33039572894364,249.0288081938589 L154.97192820979757,232.14066391009328 M154.97192820979757,232.14066391009328 L126.76275445693852,215.91363856711817 M126.76275445693852,215.91363856711817 L100.21871209680023,200.64446223970756 M100.32587599605205,220.81002345721032 L100.21871209680023,200.64446223970756 M51.327694809288914,248.66582410073522 L50.553772705134634,119.363430319815 M50.553772705134634,119.363430319815 L99.63900598207391,91.55829398442518 M99.7464891556686,111.78393463493364 L99.63900598207391,91.55829398442518 M57.68974852635665,135.62109402308215 L99.7464891556686,111.78393463493364 M58.21325872268852,224.5114772184418 L57.68974852635665,135.62109402308215 M100.21871209680023,200.64446223970756 L58.21325872268852,224.5114772184418 M331.345401434516,649.3132881267547 L331.0628343553732,519.2905652986008 M331.0628343553732,519.2905652986008 L50.553772705134634,119.363430319815 M331.0628343553732,519.2905652986008 L647.3639174868894,337.32450934635295 M626.3375798692036,369.69790989522056 L626.1707827794885,458.87943675724694 M338.1684976142343,535.572533805666 L626.3375798692036,369.69790989522056 M338.3540870245333,624.9581406296273 L338.1684976142343,535.572533805666 M626.1707827794885,458.87943675724694 L338.3540870245333,624.9581406296273 M214.0395908080772,157.1677606951826 L184.13591396077615,140.01781086209144 M184.13591396077615,140.01781086209144 L154.92072974690853,123.2627159555077 M154.92072974690853,123.2627159555077 L126.64859490178685,107.04846589040278 M126.64859490178685,107.04846589040278 L99.63900598207391,91.55829398442518 M214.11568144912266,177.41214437683246 L183.95968013411843,160.10779571797295 M183.95968013411843,160.10779571797295 L154.56575123944293,143.2407453178223 M154.56575123944293,143.2407453178223 L126.32253573344207,127.03400612657606 M126.32253573344207,127.03400612657606 L99.7464891556686,111.78393463493364 M338.1684976142343,535.572533805666 L57.68974852635665,135.62109402308215 M626.3375798692036,369.69790989522056 L255.2930697048899,153.9886938011379 M626.1707827794885,458.87943675724694 L255.57721850246074,242.9020559610117 M338.3540870245333,624.9581406296273 L58.21325872268852,224.5114772184418" stroke="black"  stroke-width="4"  fill="red"/></svg>