<svg viewBox="0 0 800 800" xmlns="http://www.w3.org/2000/svg"><path d="M259.0311349381967,354.301360034362 L267.1374285853276,351.0524932942718 M259.0311349381967,354.301360034362 L258.7503284889609,265.26238400535374 M266.86652077360577,262.0175573781519 L258.7503284889609,265.26238400535374 M267.1374285853276,351.0524932942718 L266.86652077360577,262.0175573781519 M468.66724369597387,527.0057888828624 L363.5480368688268,440.4054758265413 M363.5480368688268,440.4054758265413 L259.0311349381967,354.301360034362 M468.66724369597387,527.0057888828624 L475.7905479379005,522.900000521759 M475.7905479379005,522.900000521759 L371.1951446280887,436.7548250951897 M371.1951446280887,436.7548250951897 L267.1374285853276,351.0524932942718 M468.6416741839549,437.7530678875269 L468.66724369597387,527.0057888828624 M468.6416741839549,437.7530678875269 L363.39417742598056,351.25968388067906 M363.39417742598056,351.25968388067906 L258.7503284889609,265.26238400535374 M475.7736986784978,433.65233773793017 L371.0506368773327,347.61355182934653 M371.0506368773327,347.61355182934653 L266.86652077360577,262.0175573781519 M475.7736986784978,433.65233773793017 L468.6416741839549,437.7530678875269 M475.7905479379005,522.900000521759 L475.7736986784978,433.65233773793017" stroke="black"  stroke-width="4"  fill="red"/>
<path d="M329.3632632436089,664.1137086346296 L327.87826886906004,664.9709752846704 M327.87826886906004,664.9709752846704 L327.58961816103306,535.0254499612618 M329.07727044372484,534.1697080599315 L327.58961816103306,535.0254499612618 M329.07727044372484,534.1697080599315 L329.3632632436089,664.1137086346296 M331.3842528604399,667.0053278486882 L329.3632632436089,664.1137086346296 M327.87826886906004,664.9709752846704 L331.3842528604399,667.0053278486882 M331.3842528604399,667.0053278486882 L331.10184568513716,537.0561844790108 M327.58961816103306,535.0254499612618 L331.10184568513716,537.0561844790108 M331.10184568513716,537.0561844790108 L329.07727044372484,534.1697080599315" stroke="black"  stroke-width="4"  fill="red"/>
<path d="M748.7872161291143,543.323105767777 L646.9443403262833,484.8166264047817 M433.227944031214,726.1002851478956 L748.7872161291143,543.323105767777 M331.3842528604399,667.0053278486882 L433.227944031214,726.1002851478956 M646.9443403262833,484.8166264047817 L331.3842528604399,667.0053278486882 M647.2239350076777,355.19310255750844 L646.9443403262833,484.8166264047817 M749.2484767508697,413.5946622779349 L647.2239350076777,355.19310255750844 M748.7872161291143,543.323105767777 L749.2484767508697,413.5946622779349 M742.2579380662949,417.62929957900633 L749.2484767508697,413.5946622779349 M741.8370533371751,539.2700041884 L742.2579380662949,417.62929957900633 M440.269294365149,713.9043086156282 L741.8370533371751,539.2700041884 M440.1866678804526,591.971802963343 L440.269294365149,713.9043086156282 M433.1272071537418,596.0462190932878 L440.1866678804526,591.971802963343 M433.227944031214,726.1002851478956 L433.1272071537418,596.0462190932878 M331.10184568513716,537.0561844790108 L433.1272071537418,596.0462190932878 M331.3842528604399,667.0053278486882 L331.10184568513716,537.0561844790108 M640.2333228423615,359.21475848046794 L647.2239350076777,355.19310255750844 M639.9827692541905,480.7570680895447 L640.2333228423615,359.21475848046794 M338.4142303645401,654.8290496355205 L639.9827692541905,480.7570680895447 M338.16126883091977,532.99494202477 L338.4142303645401,654.8290496355205 M331.10184568513716,537.0561844790108 L338.16126883091977,532.99494202477 M640.2333228423615,359.21475848046794 L742.2579380662949,417.62929957900633 M741.8370533371751,539.2700041884 L639.9827692541905,480.7570680895447 M338.4142303645401,654.8290496355205 L440.269294365149,713.9043086156282 M440.1866678804526,591.971802963343 L338.16126883091977,532.99494202477" stroke="black"  stroke-width="4"  fill="red"/>
<path d="M646.9443403262833,484.8166264047817 L331.3842528604399,667.0053278486882 M331.3842528604399,667.0053278486882 L51.525007393149,266.58458898886937 M163.34668434441954,203.01320194275755 L51.525007393149,266.58458898886937 M646.9443403262833,484.8166264047817 L163.34668434441954,203.01320194275755 M647.2239350076777,355.19310255750844 L646.9443403262833,484.8166264047817 M331.3842528604399,667.0053278486882 L331.10184568513716,537.0561844790108 M331.10184568513716,537.0561844790108 L647.2239350076777,355.19310255750844 M640.224957609398,363.27269172433756 L640.0411571968468,452.43336514217947 M338.16971452309156,537.0626488977497 L640.224957609398,363.27269172433756 M338.3552816452194,626.4375210483818 L338.16971452309156,537.0626488977497 M640.0411571968468,452.43336514217947 L338.3552816452194,626.4375210483818 M331.10184568513716,537.0561844790108 L50.7515232491304,137.35536703443586 M51.525007393149,266.58458898886937 L51.307740727192254,230.2849409413285 M51.307740727192254,230.2849409413285 L50.77573597458718,141.4006880618611 M50.77573597458718,141.4006880618611 L50.7515232491304,137.35536703443586 M149.22203519552306,174.6761147116094 L51.307740727192254,230.2849409413285 M148.80952857587909,85.86157506576939 L149.22203519552306,174.6761147116094 M50.77573597458718,141.4006880618611 L148.80952857587909,85.86157506576939 M50.7515232491304,137.35536703443586 L162.77167134477952,73.89971485210435 M162.77167134477952,73.89971485210435 L163.34668434441954,203.01320194275755 M647.2239350076777,355.19310255750844 L162.77167134477952,73.89971485210435 M640.0411571968468,452.43336514217947 L149.22203519552306,174.6761147116094 M640.224957609398,363.27269172433756 L148.80952857587909,85.86157506576939 M338.16971452309156,537.0626488977497 L50.77573597458718,141.4006880618611 M338.3552816452194,626.4375210483818 L51.307740727192254,230.2849409413285" stroke="black"  stroke-width="4"  fill="red"/></svg>