<svg viewBox="0 0 800 800" xmlns="http://www.w3.org/2000/svg"><path d="M485.8290627533668,622.4877256491809 L483.3133653197396,631.7960008885891 M483.3133653197396,631.7960008885891 L483.31923031196334,626.182648646818 M485.8354885377977,616.8764226719726 L483.31923031196334,626.182648646818 M485.8354885377977,616.8764226719726 L485.8290627533668,622.4877256491809 M485.8290627533668,622.4877256491809 L492.57504078188686,626.4030466715105 M492.57504078188686,626.4030466715105 L483.3133653197396,631.7960008885891 M407.05859572600434,681.8253090168452 L492.5671007058457,632.0126909558799 M492.5671007058457,632.0126909558799 L492.57504078188686,626.4030466715105 M492.5829844263011,620.7908813403307 L483.31923031196334,626.182648646818 M492.5829844263011,620.7908813403307 L492.5869575873999,617.9838527510374 M407.03030014165023,667.7691769717562 L492.5869575873999,617.9838527510374 M407.05859572600434,681.8253090168452 L407.03030014165023,667.7691769717562 M485.8354885377977,616.8764226719726 L492.5829844263011,620.7908813403307 M492.5671007058457,632.0126909558799 L443.8478150564091,603.7237581854658 M443.8478150564091,603.7237581854658 L443.8403168658317,589.7105186240725 M492.5869575873999,617.9838527510374 L443.8403168658317,589.7105186240725 M777.015984945757,475.12582990963836 L780.3900171790532,476.7629884296749 M780.3900171790532,476.7629884296749 L783.719444471192,478.4311836293259 M783.719444471192,478.4311836293259 L787.0033617302048,480.1300074204062 M748.5771522054716,463.2121116187283 L749.6008820363912,460.37727901239725 M749.6008820363912,460.37727901239725 L751.8116907009129,457.78465117963896 M751.8116907009129,457.78465117963896 L755.0731107928109,455.5932643143967 M755.0731107928109,455.5932643143967 L759.1844535176053,453.9373865967554 M759.1844535176053,453.9373865967554 L763.8931855294001,452.9183932727417 M763.8931855294001,452.9183932727417 L768.9104036149305,452.59860766877307 M768.9104036149305,452.59860766877307 L773.9283606399059,452.9976090979242 M773.9283606399059,452.9976090979242 L778.639376237265,454.09097248605406 M778.639376237265,454.09097248605406 L782.7543174015082,455.8118204109273 M782.7543174015082,455.8118204109273 L786.020436283976,458.0547930955091 M786.020436283976,458.0547930955091 L788.2367148823868,460.68244676475274 M788.2367148823868,460.68244676475274 L789.2663469869763,463.5335642818336 M789.2663469869763,463.5335642818336 L789.0452076537143,466.43302067890176 M789.0452076537143,466.43302067890176 L787.58608321242,469.2024435514071 M787.58608321242,469.2024435514071 L784.9779567991086,471.67125628200716 M784.9779567991086,471.67125628200716 L781.3808561380198,473.68719953789116 M781.3808561380198,473.68719953789116 L777.015984945757,475.12582990963836 M658.0166423894015,441.92319682338166 L673.9056121404581,444.15054430437647 M673.9056121404581,444.15054430437647 L689.5482019762845,446.9203848260807 M689.5482019762845,446.9203848260807 L704.8897824145879,450.2234383210773 M704.8897824145879,450.2234383210773 L719.8766622383491,454.04860050490123 M719.8766622383491,454.04860050490123 L734.4562346999766,458.3830280648625 M734.4562346999766,458.3830280648625 L748.5771522054716,463.2121116187283 M625.0279589151157,439.08849864706497 L623.3355667132331,436.4297910694702 M623.3355667132331,436.4297910694702 L622.8056810969969,433.6222583245125 M622.8056810969969,433.6222583245125 L623.4685912160747,430.8304938354529 M623.4685912160747,430.8304938354529 L625.284670210877,428.21797262324105 M625.284670210877,428.21797262324105 L628.1469634550201,425.93744483721076 M628.1469634550201,425.93744483721076 L631.8874654475865,424.1221324303287 M631.8874654475865,424.1221324303287 L636.287134587429,422.87795476945996 M636.287134587429,422.87795476945996 L641.0886387640204,422.2774582783488 M641.0886387640204,422.2774582783488 L646.0113479247593,422.3556373089063 M646.0113479247593,422.3556373089063 L650.767573776993,423.1079481887996 M650.767573776993,423.1079481887996 L655.0793318916288,424.49052031729224 M655.0793318916288,424.49052031729224 L658.694329797104,426.4227536898967 M658.694329797104,426.4227536898967 L661.4008419747603,428.7918509438136 M661.4008419747603,428.7918509438136 L663.0399285232122,431.4594148968601 M663.0399285232122,431.4594148968601 L663.5149393387943,434.2694028393761 M663.5149393387943,434.2694028393761 L662.7972433285103,437.05725123050786 M662.7972433285103,437.05725123050786 L660.928154616248,439.6594521306107 M660.928154616248,439.6594521306107 L658.0166423894015,441.92319682338166 M475.06354478963675,456.3285582849674 L490.5735970189714,452.01246388625566 M490.5735970189714,452.01246388625566 L506.520983965229,448.27171558482837 M506.520983965229,448.27171558482837 L522.8433808282598,445.12032422247194 M522.8433808282598,445.12032422247194 L539.4771764845725,442.57006191587317 M539.4771764845725,442.57006191587317 L556.3576786307881,440.63045267357853 M556.3576786307881,440.63045267357853 L573.4193410685684,439.30873269647805 M573.4193410685684,439.30873269647805 L590.5960093101602,438.60981954302486 M590.5960093101602,438.60981954302486 L607.8211238103084,438.53631748766077 M607.8211238103084,438.53631748766077 L625.0279589151157,439.08849864706497 M542.331643969985,494.87531615548227 L475.06354478963675,456.3285582849674 M427.41107419613076,561.2469359159828 L542.331643969985,494.87531615548227 M360.1431714943139,522.2899264685175 L427.41107419613076,561.2469359159828 M328.98886889513864,609.9536037532125 L328.11513623421155,599.8383886350757 M328.11513623421155,599.8383886350757 L328.3487580450821,589.7238392383888 M328.3487580450821,589.7238392383888 L329.6861352682761,579.6505995507798 M329.6861352682761,579.6505995507798 L332.1192578150613,569.6589540361208 M332.1192578150613,569.6589540361208 L335.63579925356504,559.7886638206717 M335.63579925356504,559.7886638206717 L340.21917297877854,550.0788286463478 M340.21917297877854,550.0788286463478 L345.8486559389074,540.567728878139 M345.8486559389074,540.567728878139 L352.4995300576172,531.2926835168569 M352.4995300576172,531.2926835168569 L360.1431714943139,522.2899264685175 M328.98886889513864,609.9536037532125 L324.2919959425052,608.978518259768 M324.2919959425052,608.978518259768 L319.32271586012536,608.6886586434539 M319.32271586012536,608.6886586434539 L314.3714017990216,609.1009239890703 M314.3714017990216,609.1009239890703 L309.727429074167,610.1912764912661 M309.727429074167,610.1912764912661 L305.66229702456616,611.896173351784 M305.66229702456616,611.896173351784 L302.4139882393437,614.1161420909186 M302.4139882393437,614.1161420909186 L300.1729630793738,616.7215727624163 M300.1729630793738,616.7215727624163 L299.0710290352032,619.5601696716533 M299.0710290352032,619.5601696716533 L299.1734851862937,622.4658027300292 M299.1734851862937,622.4658027300292 L300.47516388916404,625.2681727108227 M300.47516388916404,625.2681727108227 L302.900457203313,627.8028472352252 M302.900457203313,627.8028472352252 L306.3077286722731,629.9208661593268 M306.3077286722731,629.9208661593268 L310.4973311857997,631.4976753499905 M310.4973311857997,631.4976753499905 L315.2234575176085,632.4404303569504 M315.2234575176085,632.4404303569504 L320.2085126489853,632.6936068021105 M320.2085126489853,632.6936068021105 L325.15960945715864,632.2422753696014 M325.15960945715864,632.2422753696014 L329.7858312532208,631.1130369738535 M329.7858312532208,631.1130369738535 L333.8155139681235,629.3724040646852 M371.1124954629239,682.7559365593767 L362.6073117443657,674.4342525833201 M362.6073117443657,674.4342525833201 L354.98635943502484,665.8388162436473 M354.98635943502484,665.8388162436473 L348.27582207235014,657.001737755239 M348.27582207235014,657.001737755239 L342.49834184477834,647.9558909551047 M342.49834184477834,647.9558909551047 L337.6730681832861,638.734776562279 M337.6730681832861,638.734776562279 L333.8155139681235,629.3724040646852 M371.1124954629239,682.7559365593767 L366.07932276720373,683.4038539879778 M366.07932276720373,683.4038539879778 L361.467995505414,684.7546254684705 M361.467995505414,684.7546254684705 L357.56154902859635,686.7256017411355 M357.56154902859635,686.7256017411355 L354.60006839532184,689.1960912866116 M354.60006839532184,689.1960912866116 L352.76598218611196,692.0146608110914 M352.76598218611196,692.0146608110914 L352.1727077026774,695.0083394318201 M352.1727077026774,695.0083394318201 L352.85762845462943,697.9931201174647 M352.85762845462943,697.9931201174647 L354.7794395297524,700.7853592891825 M354.7794395297524,700.7853592891825 L357.820628131947,703.21295859861 M357.820628131947,703.21295859861 L361.79443715167224,705.1261598383002 M361.79443715167224,705.1261598383002 L366.4563425189316,706.4067938739784 M366.4563425189316,706.4067938739784 L371.5190854027566,706.9757209766702 M371.5190854027566,706.9757209766702 L376.6705501875849,706.79775033226 M376.6705501875849,706.79775033226 L381.59304236132607,705.8839091870307 M381.59304236132607,705.8839091870307 L385.98314735356473,704.2906691016515 M385.98314735356473,704.2906691016515 L389.57050010502434,702.1164897447824 M389.57050010502434,702.1164897447824 L392.1345586666099,699.4955777202678 M400.9742883141645,705.3643117672292 L397.97294978637893,703.4353859660969 M397.97294978637893,703.4353859660969 L395.02612052193274,701.4789541672249 M395.02612052193274,701.4789541672249 L392.1345586666099,699.4955777202678 M529.1320640111774,630.5887846279993 L400.9742883141645,705.3643117672292 M661.8916311002391,553.1282750501016 L656.9386935136722,547.0204447727587 M656.9386935136722,547.0204447727587 L650.8332397177103,541.2742588301741 M650.8332397177103,541.2742588301741 L643.6544494812018,535.9622749864272 M643.6544494812018,535.9622749864272 L635.494865351738,531.1514072388895 M635.494865351738,531.1514072388895 L626.459101667541,526.9021004225962 M626.459101667541,526.9021004225962 L616.6625539865918,523.2676327933978 M616.6625539865918,523.2676327933978 L606.2298957696321,520.2934838912911 M606.2298957696321,520.2934838912911 L595.2935828230953,518.0168169351329 M595.2935828230953,518.0168169351329 L583.992159113661,516.4660295676708 M583.992159113661,516.4660295676708 L572.4685957221475,515.6604627291631 M572.4685957221475,515.6604627291631 L560.8685824100089,515.6101482734841 M560.8685824100089,515.6101482734841 L549.3386978301137,516.315718338589 M549.3386978301137,516.315718338589 L538.0246763190282,517.7683772931271 M538.0246763190282,517.7683772931271 L527.0696498925656,519.9500184889289 M527.0696498925656,519.9500184889289 L516.6123880531582,522.8334269317809 M516.6123880531582,522.8334269317809 L506.7856110232262,526.382583471343 M506.7856110232262,526.382583471343 L497.71435335360786,530.55308308658 M497.71435335360786,530.55308308658 L489.51441595698185,535.2926537869098 M489.51441595698185,535.2926537869098 L482.290897576046,540.5417617807943 M482.290897576046,540.5417617807943 L476.136850103244,546.2343121552977 M476.136850103244,546.2343121552977 L471.13207197594994,552.2984408536931 M471.13207197594994,552.2984408536931 L467.3420317572617,558.6573753206361 M467.3420317572617,558.6573753206361 L464.81695596775785,565.230370889057 M464.81695596775785,565.230370889057 L463.5911143352487,571.9337015222785 M463.5911143352487,571.9337015222785 L463.68229035668844,578.6817178147191 M463.68229035668844,578.6817178147191 L465.0914191956333,585.3879267058575 M465.0914191956333,585.3879267058575 L467.8025040442513,591.9660764147598 M467.8025040442513,591.9660764147598 L471.7826747411156,598.3313138509337 M471.7826747411156,598.3313138509337 L476.98256708454113,604.4012822337352 M476.98256708454113,604.4012822337352 L483.3368116748859,610.0971972305338 M483.3368116748859,610.0971972305338 L490.7648421113396,615.3449422146743 M490.7648421113396,615.3449422146743 L499.17186473347635,620.0760420558844 M499.17186473347635,620.0760420558844 L508.4500675514432,624.2286300647586 M508.4500675514432,624.2286300647586 L518.4799768456812,627.7482745254312 M518.4799768456812,627.7482745254312 L529.1320640111774,630.5887846279993 M787.0033617302048,480.1300074204062 L661.8916311002391,553.1282750501016 M315.3410031708345,623.1587581882411 L314.45228568957896,622.4939368796894 M314.45228568957896,622.4939368796894 L313.86465347114097,621.7238625622462 M313.86465347114097,621.7238625622462 L313.6121894140634,620.8933361957968 M313.6121894140634,620.8933361957968 L313.7095071315774,620.0506302899852 M313.7095071315774,620.0506302899852 L314.1508764233432,619.2447234618462 M314.1508764233432,619.2447234618462 L314.91061475396117,618.5224112415261 M314.91061475396117,618.5224112415261 L315.9445083145648,617.9256571377416 M315.9445083145648,617.9256571377416 L317.1925013924724,617.489085259416 M317.1925013924724,617.489085259416 L318.5820617709809,617.2380491782516 M318.5820617709809,617.2380491782516 L320.03252135579356,617.1871016036916 M320.03252135579356,617.1871016036916 L321.4596381542856,617.3392023682627 M321.4596381542856,617.3392023682627 L322.78055226215145,617.6855228792123 M322.78055226215145,617.6855228792123 L323.91851219663505,618.2059788939106 M323.91851219663505,618.2059788939106 L324.8074263072356,618.8703482630553 M324.8074263072356,618.8703482630553 L325.3955935256312,619.6400741706077 M325.3955935256312,619.6400741706077 L325.648808371519,620.4704354814507 M325.648808371519,620.4704354814507 L325.5522852448598,621.3131974942378 M325.5522852448598,621.3131974942378 L325.1115723098422,622.119368735762 M325.1115723098422,622.119368735762 L324.3522017485547,622.8420931091682 M324.3522017485547,622.8420931091682 L323.31830310987414,623.439312675996 M323.31830310987414,623.439312675996 L322.0699332696553,623.876296707645 M322.0699332696553,623.876296707645 L320.6797107650321,624.1275971978932 M320.6797107650321,624.1275971978932 L319.2284553650928,624.1786008778049 M319.2284553650928,624.1786008778049 L317.80059137918687,624.0263350580692 M317.80059137918687,624.0263350580692 L316.47914987343233,623.6796661463935 M316.47914987343233,623.6796661463935 L315.3410031708345,623.1587581882411 M638.9988794496397,436.27396176786533 L638.1065226445623,435.6286929868838 M638.1065226445623,435.6286929868838 L637.5081287803381,434.8812654494428 M637.5081287803381,434.8812654494428 L637.2384090389547,434.07516215559724 M637.2384090389547,434.07516215559724 L637.3129818071471,433.25723587557036 M637.3129818071471,433.25723587557036 L637.7274409253133,432.4750250879519 M637.7274409253133,432.4750250879519 L638.4576680439906,431.77394972150546 M638.4576680439906,431.77394972150546 L639.461165436676,431.19474001362 M639.461165436676,431.19474001362 L640.6796420203101,430.7710027064167 M640.6796420203101,430.7710027064167 L642.0422800978936,430.5273465200481 M642.0422800978936,430.5273465200481 L643.4699731546931,430.4778966717744 M643.4699731546931,430.4778966717744 L644.8798004976329,430.62552605161767 M644.8798004976329,430.62552605161767 L646.1899051938341,430.96166540288027 M646.1899051938341,430.96166540288027 L647.3241641473732,431.4668204933631 M647.3241641473732,431.4668204933631 L648.2167005472046,432.11165712179803 M648.2167005472046,432.11165712179803 L648.8156050046393,432.8587515034678 M648.8156050046393,432.8587515034678 L649.0860493480066,433.6646969681892 M649.0860493480066,433.6646969681892 L649.012249202461,434.4826768987098 M649.012249202461,434.4826768987098 L648.5984337241825,435.26514052313814 M648.5984337241825,435.26514052313814 L647.868573822484,435.96660999773985 M647.868573822484,435.96660999773985 L646.8650830904055,436.54626478971477 M646.8650830904055,436.54626478971477 L645.6462510852995,436.97039620529904 M645.6462510852995,436.97039620529904 L644.2829769350333,437.21430522436367 M644.2829769350333,437.21430522436367 L642.8545128612428,437.26380872157836 M642.8545128612428,437.26380872157836 L641.4439561925318,437.11602151303384 M641.4439561925318,437.11602151303384 L640.1333309320628,436.7795490147644 M640.1333309320628,436.7795490147644 L638.9988794496397,436.27396176786533 M443.8478150564091,603.7237581854658 L358.3398719868964,653.3129255452461 M358.3398719868964,653.3129255452461 L407.05859572600434,681.8253090168452 M368.6533648534542,697.3471416291718 L367.7565992566273,696.674480295047 M367.7565992566273,696.674480295047 L367.16224034778224,695.8953234593212 M367.16224034778224,695.8953234593212 L366.9047616212483,695.0550007366104 M366.9047616212483,695.0550007366104 L366.99906742334804,694.2023541123629 M366.99906742334804,694.2023541123629 L367.4396062885925,693.3869425872942 M367.4396062885925,693.3869425872942 L368.2007385978668,692.6561107231523 M368.2007385978668,692.6561107231523 L369.23817344146744,692.0523194276806 M369.23817344146744,692.0523194276806 L370.49164923825725,691.6106008757735 M370.49164923825725,691.6106008757735 L371.88831071020076,691.3566046684381 M371.88831071020076,691.3566046684381 L373.34708242217596,691.305057710547 M373.34708242217596,691.305057710547 L374.7832355050712,691.4589519776405 M374.7832355050712,691.4589519776405 L376.1133857865159,691.8093548580065 M376.1133857865159,691.8093548580065 L377.26024541338836,692.3359454568115 M377.26024541338836,692.3359454568115 L378.15721733347317,693.0081522939889 M378.15721733347317,693.0081522939889 L378.75211606105324,693.7869545380169 M378.75211606105324,693.7869545380169 L379.0103537252742,694.6271092759769 M379.0103537252742,694.6271092759769 L378.9168521273038,695.479813002682 M378.9168521273038,695.479813002682 L378.47697849159226,696.2954936329443 M378.47697849159226,696.2954936329443 L377.7162200544956,697.0267449644475 M377.7162200544956,697.0267449644475 L376.67878206425917,697.6310099825005 M376.67878206425917,697.6310099825005 L375.4249268227787,698.0731479998685 M375.4249268227787,698.0731479998685 L374.02759654628784,698.3274133080205 M374.02759654628784,698.3274133080205 L372.56801987154665,698.3790173652861 M372.56801987154665,698.3790173652861 L371.13111008256465,698.2249551143192 M371.13111008256465,698.2249551143192 L369.8004246930208,697.8741976525849 M369.8004246930208,697.8741976525849 L368.6533648534542,697.3471416291718 M764.7731780831906,466.7137457048148 L763.8720937783904,466.0653147370785 M763.8720937783904,466.0653147370785 L763.2646538568858,465.31422284859565 M763.2646538568858,465.31422284859565 L762.9860955528478,464.50416636697395 M762.9860955528478,464.50416636697395 L763.0525506784023,463.68222786536404 M763.0525506784023,463.68222786536404 L763.460089055591,462.8961815601877 M763.460089055591,462.8961815601877 L764.1849892800083,462.191667408362 M764.1849892800083,462.191667408362 L765.185067358345,461.6096179021047 M765.185067358345,461.6096179021047 L766.4022304370967,461.1838044595528 M766.4022304370967,461.1838044595528 L767.7657325264113,460.93895373557075 M767.7657325264113,460.93895373557075 L769.1964215340756,460.8892627751607 M769.1964215340756,460.8892627751607 L770.6111984148943,461.03761591034385 M770.6111984148943,461.03761591034385 L771.9279190341656,461.37540190658433 M771.9279190341656,461.37540190658433 L773.0700762300627,461.8830310287433 M773.0700762300627,461.8830310287433 L773.971345921268,462.5310319262967 M773.971345921268,462.5310319262967 L774.579295550468,463.281788205827 M774.579295550468,463.281788205827 L774.8585804041571,464.0916856956094 M774.8585804041571,464.0916856956094 L774.7929022369217,464.9136782427487 M774.7929022369217,464.9136782427487 L774.3860132275503,465.69997924681616 M774.3860132275503,465.69997924681616 L773.6614860311842,466.40489041019765 M773.6614860311842,466.40489041019765 L772.6614191731184,466.9873882787261 M772.6614191731184,466.9873882787261 L771.4439029366903,467.41359873103437 M771.4439029366903,467.41359873103437 L770.0797642270878,467.65870414976337 M770.0797642270878,467.65870414976337 L768.648300965949,467.7084491527844 M768.648300965949,467.7084491527844 L767.2327895779323,467.5599370265931 M767.2327895779323,467.5599370265931 L765.9155424540236,467.22181543117784 M765.9155424540236,467.22181543117784 L764.7731780831906,466.7137457048148 M529.1724596013479,616.5607298698221 L518.5143807078455,613.7217831814801 M518.5143807078455,613.7217831814801 L508.4788301921247,610.204076925753 M508.4788301921247,610.204076925753 L499.1954100667963,606.0537770896734 M499.1954100667963,606.0537770896734 L490.7836615351236,601.3252860643674 M490.7836615351236,601.3252860643674 L483.35145722444116,596.0804371132278 M483.35145722444116,596.0804371132278 L476.9936438227784,590.3876682504051 M476.9936438227784,590.3876682504051 L471.7908324858021,584.3210557865659 M471.7908324858021,584.3210557865659 L467.8084285836562,577.9593410364675 M467.8084285836562,577.9593410364675 L465.09582309823855,571.3848356321946 M465.09582309823855,571.3848356321946 L463.6859035664247,564.6823459535324 M463.6859035664247,564.6823459535324 L463.59467462276353,557.9380760981958 M463.59467462276353,557.9380760981958 L464.8211994226829,551.2384711039635 M464.8211994226829,551.2384711039635 L467.3476834025625,544.6691326174989 M467.3476834025625,544.6691326174989 L471.13983665756183,538.3137397911948 M471.13983665756183,538.3137397911948 L476.1474037421778,532.2529918909781 M476.1474037421778,532.2529918909781 L482.30487887675787,526.5636181339114 M482.30487887675787,526.5636181339114 L489.53241866959866,521.3174418578435 M489.53241866959866,521.3174418578435 L497.7369191668175,516.5805203958118 M497.7369191668175,516.5805203958118 L506.81322314414854,512.4123535828999 M506.81322314414854,512.4123535828999 L516.6454655342872,508.865183511185 M516.6454655342872,508.865183511185 L527.1085427581373,505.9833897410931 M527.1085427581373,505.9833897410931 L538.0696615194221,503.8029707286829 M538.0696615194221,503.8029707286829 L549.3899760597108,502.35112580717134 M549.3899760597108,502.35112580717134 L560.9262758052598,501.6459511932717 M560.9262758052598,501.6459511932717 L572.5327464724216,501.69623744771627 M572.5327464724216,501.69623744771627 L584.0627289786809,502.5013527969665 M584.0627289786809,502.5013527969665 L595.370453542142,504.05127117024915 M595.370453542142,504.05127117024915 L606.3128704186144,506.3266627683087 M606.3128704186144,506.3266627683087 L616.7513592219784,509.2991462870139 M616.7513592219784,509.2991462870139 L626.5533908399626,512.931579853818 M626.5533908399626,512.931579853818 L635.5942225206537,517.1785099976419 M635.5942225206537,517.1785099976419 L643.758394234769,521.9866889259054 M643.758394234769,521.9866889259054 L650.9412328190089,527.2957062658907 M650.9412328190089,527.2957062658907 L657.0501432721154,533.0386860489186 M657.0501432721154,533.0386860489186 L662.0059004865093,539.1431116031633 M787.1864110110783,466.1857530220899 L662.0059004865093,539.1431116031633 M475.0734280894833,442.3977449719371 L491.8221568820497,437.7714974195285 M491.8221568820497,437.7714974195285 L509.0737864035645,433.81483589223046 M509.0737864035645,433.81483589223046 L526.749997026164,430.5449746167361 M526.749997026164,430.5449746167361 L544.770774885451,427.97610974274403 M544.770774885451,427.97610974274403 L563.0547157931367,426.1193800512909 M563.0547157931367,426.1193800512909 L581.5193588968074,424.98283224915525 M581.5193588968074,424.98283224915525 L600.0815350848281,424.57138134544306 M600.0815350848281,424.57138134544306 L618.6576677662132,424.8868130153034 M618.6576677662132,424.8868130153034 L637.1641423436943,425.92775769097466 M637.1641423436943,425.92775769097466 L655.5175999405874,427.68970969139025 M655.5175999405874,427.68970969139025 L673.6353004635714,430.1650377218629 M673.6353004635714,430.1650377218629 L691.4354284906643,433.34301834473854 M691.4354284906643,433.34301834473854 L708.8374505752417,437.209839219116 M708.8374505752417,437.209839219116 L725.7624082845488,441.74869312526187 M725.7624082845488,441.74869312526187 L742.1332594391281,446.9397874242811 M742.1332594391281,446.9397874242811 L757.8752357088774,452.76045846231244 M757.8752357088774,452.76045846231244 L772.9160596699668,459.1851984437187 M772.9160596699668,459.1851984437187 L787.1864110110783,466.1857530220899 M542.378940273737,480.9227601121534 L475.0734280894833,442.3977449719371 M427.39441846296165,547.2572519747868 L542.378940273737,480.9227601121534 M360.0891030871745,508.3219873448312 L427.39441846296165,547.2572519747868 M400.94250192672683,691.2953587964796 L388.5634996177069,682.9172388968068 M388.5634996177069,682.9172388968068 L377.2121494712093,674.0748776523282 M377.2121494712093,674.0748776523282 L366.9405953240851,664.8114759707903 M366.9405953240851,664.8114759707903 L357.7954710132976,655.1721570882739 M357.7954710132976,655.1721570882739 L349.8176946409955,645.2036306247803 M349.8176946409955,645.2036306247803 L343.04240229822807,634.9540020202719 M343.04240229822807,634.9540020202719 L337.4987419462114,624.472499212591 M337.4987419462114,624.472499212591 L333.2098685263395,613.8092085804183 M333.2098685263395,613.8092085804183 L330.19280325271575,603.0148421665797 M330.19280325271575,603.0148421665797 L328.45846837341554,592.1404689735946 M328.45846837341554,592.1404689735946 L328.011681063635,581.2372809646953 M328.011681063635,581.2372809646953 L328.8512004130265,570.3563302359855 M328.8512004130265,570.3563302359855 L330.9697695052382,559.5483128130361 M330.9697695052382,559.5483128130361 L334.3542469561616,548.863314346313 M334.3542469561616,548.863314346313 L338.98569573959065,538.3506034695431 M338.98569573959065,538.3506034695431 L344.83955249641735,528.0584048113059 M344.83955249641735,528.0584048113059 L351.8857921882215,518.0336888511451 M351.8857921882215,518.0336888511451 L360.0891030871745,508.3219873448312 M529.1724596013479,616.5607298698221 L400.94250192672683,691.2953587964796 M443.8403168658317,589.7105186240725 L358.2842222794056,639.2723892819731 M358.2842222794056,639.2723892819731 L407.03030014165023,667.7691769717562 M358.3398719868964,653.3129255452461 L358.2842222794056,639.2723892819731 M625.0650808379418,433.5219279968623 L625.0279589151157,439.08849864706497 M625.0650808379418,433.5219279968623 L636.1228242825409,434.2088371716915 M636.1228242825409,434.2088371716915 L647.1274017365951,435.1540137307489 M647.1274017365951,435.1540137307489 L658.0610722588301,436.3559836905108 M658.0610722588301,436.3559836905108 L658.0166423894015,441.92319682338166 M748.6417310116872,457.64008250372945 L748.5771522054716,463.2121116187283 M748.6417310116872,457.64008250372945 L758.4054689504491,461.3759271370916 M758.4054689504491,461.3759271370916 L767.892925073561,465.3485492634527 M767.892925073561,465.3485492634527 L777.0869350728109,469.551112709451 M777.0869350728109,469.551112709451 L777.015984945757,475.12582990963836 M787.1864110110783,466.1857530220899 L787.0033617302048,480.1300074204062 M475.0734280894833,442.3977449719371 L475.06354478963675,456.3285582849674 M748.6417310116872,457.64008250372945 L749.6656729994172,454.8058902629152 M749.6656729994172,454.8058902629152 L751.8769579851551,452.21384833396627 M751.8769579851551,452.21384833396627 L755.1390890408563,450.0229568832649 M755.1390890408563,450.0229568832649 L759.2513335913948,448.3674536290785 M759.2513335913948,448.3674536290785 L763.9611029591139,447.3486907907239 M763.9611029591139,447.3486907907239 L768.9794304233442,447.02897752654025 M768.9794304233442,447.02897752654025 L773.9985009857975,447.4278886967886 M773.9985009857975,447.4278886967886 L778.7105661844017,448.52100478205557 M778.7105661844017,448.52100478205557 L782.8264287339588,450.2414635623777 M782.8264287339588,450.2414635623777 L786.0932842531331,452.48392918973445 M786.0932842531331,452.48392918973445 L788.3100693718583,455.11098906663386 M788.3100693718583,455.11098906663386 L789.339946501248,457.9614625713581 M789.339946501248,457.9614625713581 L789.1187752772231,460.8602643339223 M789.1187752772231,460.8602643339223 L787.6593436219082,463.62906221002027 M787.6593436219082,463.62906221002027 L785.0506532400454,466.0973180152584 M785.0506532400454,466.0973180152584 L781.4527663682838,468.11280666688486 M781.4527663682838,468.11280666688486 L777.0869350728109,469.551112709451 M625.0650808379418,433.5219279968623 L623.3723063804439,430.8638232736426 M623.3723063804439,430.8638232736426 L622.842295291837,428.056927401805 M622.842295291837,428.056927401805 L623.5053437348657,425.26579648706246 M623.5053437348657,425.26579648706246 L625.321816403185,422.6538684221888 M625.321816403185,422.6538684221888 L628.184735356303,420.37385860618946 M628.184735356303,420.37385860618946 L631.9260583095289,418.55895863853755 M631.9260583095289,418.55895863853755 L636.3266956139763,417.31506372273543 M636.3266956139763,417.31506372273543 L641.1292586368303,416.71470371690907 M641.1292586368303,416.71470371690907 L646.0530555975432,416.7928649776317 M646.0530555975432,416.7928649776317 L650.8103348056331,417.5450048708678 M650.8103348056331,417.5450048708678 L655.123050417848,418.9272628182381 M655.123050417848,418.9272628182381 L658.7388540298086,420.85905721650283 M658.7388540298086,420.85905721650283 L661.4459729471978,423.2276164284962 M661.4459729471978,423.2276164284962 L663.0854315700161,425.89457479437897 M663.0854315700161,425.89457479437897 L663.5605577225647,428.70392509067443 M663.5605577225647,428.70392509067443 L662.8427132057062,431.49114113719736 M662.8427132057062,431.49114113719736 L660.9732205138321,434.0927520511409 M660.9732205138321,434.0927520511409 L658.0610722588301,436.3559836905108 M542.331643969985,494.87531615548227 L542.378940273737,480.9227601121534 M427.41107419613076,561.2469359159828 L427.39441846296165,547.2572519747868 M360.0891030871745,508.3219873448312 L360.1431714943139,522.2899264685175 M400.94250192672683,691.2953587964796 L400.9742883141645,705.3643117672292 M392.1198577803833,693.8711794023948 L392.1345586666099,699.4955777202678 M392.1198577803833,693.8711794023948 L384.6963743861908,688.4656979093122 M384.6963743861908,688.4656979093122 L377.6832477899598,682.8834630028624 M377.6832477899598,682.8834630028624 L371.0930722508213,677.1351829773291 M371.0930722508213,677.1351829773291 L371.1124954629239,682.7559365593767 M333.78779534857705,623.763340330335 L333.8155139681235,629.3724040646852 M333.78779534857705,623.763340330335 L331.72079325757636,617.3267966270053 M331.72079325757636,617.3267966270053 L330.1108913086549,610.851640700763 M330.1108913086549,610.851640700763 L328.96011049524515,604.3488174740381 M328.96011049524515,604.3488174740381 L328.98886889513864,609.9536037532125 M333.78779534857705,623.763340330335 L329.7572035820132,625.5035904788117 M329.7572035820132,625.5035904788117 L325.1299398968728,626.6325806156098 M325.1299398968728,626.6325806156098 L320.17772967407933,627.0838128372393 M320.17772967407933,627.0838128372393 L315.1915551997229,626.8306920439861 M315.1915551997229,626.8306920439861 L310.464369541678,625.888144288506 M310.464369541678,625.888144288506 L306.27383008327524,624.311681807941 M306.27383008327524,624.311681807941 L302.8657990956675,622.194128734822 M302.8657990956675,622.194128734822 L300.43996817905474,619.6600119132047 M300.43996817905474,619.6600119132047 L299.13800508688877,616.8582588021739 M299.13800508688877,616.8582588021739 L299.0355341159968,613.9532656393794 M299.0355341159968,613.9532656393794 L300.1377234077622,611.115294152756 M300.1377234077622,611.115294152756 L302.3792585974443,608.5104377831799 M302.3792585974443,608.5104377831799 L305.6283020892381,606.290958571144 M305.6283020892381,606.290958571144 L309.69435041577776,604.5864377778717 M309.69435041577776,604.5864377778717 L314.3393674057045,603.4963258405616 M314.3393674057045,603.4963258405616 L319.29179280181074,603.0841514642269 M319.29179280181074,603.0841514642269 L324.26218651364997,603.3739471203229 M324.26218651364997,603.3739471203229 L328.96011049524515,604.3488174740381 M392.1198577803833,693.8711794023948 L389.55521695118256,696.4915216764475 M389.55521695118256,696.4915216764475 L385.9670510454763,698.6652285819334 M385.9670510454763,698.6652285819334 L381.5759519964214,700.2581225614252 M381.5759519964214,700.2581225614252 L376.6523461719062,701.1717652300695 M376.6523461719062,701.1717652300695 L371.4997169502079,701.3496972246046 M371.4997169502079,701.3496972246046 L366.43583085425985,700.7808936797383 M366.43583085425985,700.7808936797383 L361.77287416375094,699.5005378103381 M361.77287416375094,699.5005378103381 L357.79817061748406,697.5877522454534 M357.79817061748406,697.5877522454534 L354.7562993665328,695.1606805598715 M354.7562993665328,695.1606805598715 L352.8340593798057,692.369048523577 M352.8340593798057,692.369048523577 L352.1489895334536,689.3849171457679 M352.1489895334536,689.3849171457679 L352.7424035314789,686.3918900869824 M352.7424035314789,686.3918900869824 L354.5769088871335,683.5739343041569 M354.5769088871335,683.5739343041569 L357.5390622322341,681.103982938645 M357.5390622322341,681.103982938645 L361.4463934799849,679.1334361860117 M361.4463934799849,679.1334361860117 L366.0587632250743,677.7829591488223 M366.0587632250743,677.7829591488223 L371.0930722508213,677.1351829773291 M529.1724596013479,616.5607298698221 L529.1320640111774,630.5887846279993 M528.6379689647797,625.2770328756876 L528.6540147503445,619.6651154944232 M498.5718359756586,637.2014243370535 L528.6540147503445,619.6651154944232 M498.5718359756586,637.2014243370535 L498.562534815759,642.8171989628319 M498.562534815759,642.8171989628319 L528.6379689647797,625.2770328756876 M662.0059004865093,539.1431116031633 L661.8916311002391,553.1282750501016 M691.4395340319477,530.3302242485499 L691.4917629940734,524.7393767097219 M662.2281804370589,541.7984875342827 L691.4917629940734,524.7393767097219 M662.2281804370589,541.7984875342827 L662.1824133755563,547.3931452026416 M662.1824133755563,547.3931452026416 L691.4395340319477,530.3302242485499 M315.3410031708345,623.1587581882411 L315.3091507035284,617.5510616980339 M315.3091507035284,617.5510616980339 L316.44755161314197,618.0718549833801 M316.44755161314197,618.0718549833801 L317.7692889322462,618.4184475846276 M317.7692889322462,618.4184475846276 L319.19747311932974,618.5706798882306 M319.19747311932974,618.5706798882306 L320.64905447408194,618.5196874349497 M320.64905447408194,618.5196874349497 L322.0395897099887,618.268442260842 M322.0395897099887,618.268442260842 L323.2882408647871,617.8315544232549 M323.2882408647871,617.8315544232549 L324.32237302978143,617.2344663344087 M324.32237302978143,617.2344663344087 L325.08191576390914,616.5119010858608 M325.08191576390914,616.5119010858608 L325.5227295196907,615.7059073639266 M325.5227295196907,615.7059073639266 L325.619276286357,614.8633309527748 M325.619276286357,614.8633309527748 L325.3660065548525,614.0331525372784 M325.3660065548525,614.0331525372784 L324.7777091450632,613.2635961914355 M324.7777091450632,613.2635961914355 L323.8885971190664,612.5993731921267 M323.8885971190664,612.5993731921267 L322.75038306031104,612.079031852118 M322.75038306031104,612.079031852118 L321.429173375022,611.7327876530483 M321.429173375022,611.7327876530483 L320.00173671040454,611.5807204052978 M320.00173671040454,611.5807204052978 L318.5509515282048,611.6316567529934 M318.5509515282048,611.6316567529934 L317.161078716328,611.8826375169153 M317.161078716328,611.8826375169153 L315.91280449400136,612.3191131994615 M315.91280449400136,612.3191131994615 L314.87867741050405,612.9157358233248 M314.87867741050405,612.9157358233248 L314.1187667429423,613.637888917069 M314.1187667429423,613.637888917069 L313.677296336383,614.4436182245161 M313.677296336383,614.4436182245161 L313.57995462226074,615.2861385284585 M313.57995462226074,615.2861385284585 L313.83247322747724,616.1164820002493 M313.83247322747724,616.1164820002493 L314.4202353962622,616.8863867574348 M314.4202353962622,616.8863867574348 L315.3091507035284,617.5510616980339 M638.9988794496397,436.27396176786533 L639.0390829369023,430.7080293136922 M639.0390829369023,430.7080293136922 L640.1737869740085,431.2135018979493 M640.1737869740085,431.2135018979493 L641.4847032228225,431.5498980923226 M641.4847032228225,431.5498980923226 L642.8955723761798,431.69765178754454 M642.8955723761798,431.69765178754454 L644.3243522460681,431.6481595160231 M644.3243522460681,431.6481595160231 L645.687927118664,431.4043058084219 M645.687927118664,431.4043058084219 L646.9070272781972,430.98027057853415 M646.9070272781972,430.98027057853415 L647.910737991703,430.4007472526305 M647.910737991703,430.4007472526305 L648.6407569240773,429.69943688773657 M648.6407569240773,429.69943688773657 L649.0546612478431,428.9171507650462 M649.0546612478431,428.9171507650462 L649.1284749198721,428.0993564164246 M649.1284749198721,428.0993564164246 L648.8579680257604,427.2935938265304 M648.8579680257604,427.2935938265304 L648.258928604039,426.54666898659804 M648.258928604039,426.54666898659804 L647.3661926844841,425.90197871002493 M647.3661926844841,425.90197871002493 L646.2316812628495,425.39693827967454 M646.2316812628495,425.39693827967454 L644.9212858096552,425.06087523037354 M644.9212858096552,425.06087523037354 L643.5111463051774,424.9132793629363 M643.5111463051774,424.9132793629363 L642.0831377931283,424.96271798582825 M642.0831377931283,424.96271798582825 L640.7201992737173,425.20631886220167 M640.7201992737173,425.20631886220167 L639.5014546915563,425.62995998599695 M639.5014546915563,425.62995998599695 L638.4977373130243,426.2090382303957 M638.4977373130243,426.2090382303957 L637.7673509999439,426.90995448942294 M637.7673509999439,426.90995448942294 L637.3528027507672,427.6919877767716 M637.3528027507672,427.6919877767716 L637.2782161141776,428.509728475211 M637.2782161141776,428.509728475211 L637.5479980863315,429.31564889331275 M637.5479980863315,429.31564889331275 L638.1465266901067,430.0629068870819 M638.1465266901067,430.0629068870819 L639.0390829369023,430.7080293136922 M368.6533648534542,697.3471416291718 L368.63336395642006,691.723210534269 M368.63336395642006,691.723210534269 L369.7806820036918,692.2501519229721 M369.7806820036918,692.2501519229721 L371.1116673622366,692.6008331004203 M371.1116673622366,692.6008331004203 L372.54890142306203,692.7548618466305 M372.54890142306203,692.7548618466305 L374.00880780120855,692.7032690118862 M374.00880780120855,692.7032690118862 L375.4064540160703,692.4490590011158 M375.4064540160703,692.4490590011158 L376.660593052046,692.007017144989 M376.660593052046,692.007017144989 L377.69826617598096,691.4028835606658 M377.69826617598096,691.4028835606658 L378.45919742751374,690.6717913010716 M378.45919742751374,690.6717913010716 L378.89917152383924,689.8562881313992 M378.89917152383924,689.8562881313992 L378.992695420346,689.0037699453924 M378.992695420346,689.0037699453924 L378.734400627249,688.1637980428898 M378.734400627249,688.1637980428898 L378.13936869406564,687.3851653051522 M378.13936869406564,687.3851653051522 L377.2421952467884,686.7131047911323 M377.2421952467884,686.7131047911323 L376.09507749982646,686.1866288295869 M376.09507749982646,686.1866288295869 L374.7646274905035,685.8363022363885 M374.7646274905035,685.8363022363885 L373.3281504772412,685.6824414754168 M373.3281504772412,685.6824414754168 L371.8690494254674,685.7339772103227 M371.8690494254674,685.7339772103227 L370.47207231758875,685.9879181180896 M370.47207231758875,685.9879181180896 L369.2183128982902,686.4295405053465 M369.2183128982902,686.4295405053465 L368.1806429231227,687.0332003632388 M368.1806429231227,687.0332003632388 L367.4193376312011,687.7638731520631 M367.4193376312011,687.7638731520631 L366.9786980053289,688.5791072143547 M366.9786980053289,688.5791072143547 L366.8843695416001,689.4315682974399 M366.8843695416001,689.4315682974399 L367.14190505402195,690.2717081860583 M367.14190505402195,690.2717081860583 L367.7363969241562,691.0506955183753 M367.7363969241562,691.0506955183753 L368.63336395642006,691.723210534269 M764.7731780831906,466.7137457048148 L764.8413659279254,461.1409259940848 M764.8413659279254,461.1409259940848 L765.9839863682181,461.64888104517917 M765.9839863682181,461.64888104517917 L767.301527421433,461.98692632902464 M767.301527421433,461.98692632902464 L768.7173534920721,462.1354049384019 M768.7173534920721,462.1354049384019 L770.1491338762694,462.08567116194587 M770.1491338762694,462.08567116194587 L771.5135736858289,461.840621060449 M771.5135736858289,461.840621060449 L772.7313574840206,461.4145068036082 M772.7313574840206,461.4145068036082 L773.7316427941519,460.83214041498684 M773.7316427941519,460.83214041498684 L774.4563266442312,460.1273883784709 M774.4563266442312,460.1273883784709 L774.8633014140742,459.3412648950999 M774.8633014140742,459.3412648950999 L774.9289894932391,458.5194579501466 M774.9289894932391,458.5194579501466 L774.6496381560705,457.7097433550575 M774.6496381560705,457.7097433550575 L774.041549540301,456.9591566355339 M774.041549540301,456.9591566355339 L773.1400764492412,456.3113021065787 M773.1400764492412,456.3113021065787 L771.9976632761256,455.80378765667894 M771.9976632761256,455.80378765667894 L770.6806489628575,455.4660779706045 M770.6806489628575,455.4660779706045 L769.265557725972,455.3177583515706 M769.265557725972,455.3177583515706 L767.8345519382458,455.36743808564177 M767.8345519382458,455.36743808564177 L766.4707490298317,455.61223349345664 M766.4707490298317,455.61223349345664 L765.2533185436998,456.0379507422015 M765.2533185436998,456.0379507422015 L764.2530220058343,456.6198687704269 M764.2530220058343,456.6198687704269 L763.5279649601035,457.3242237970474 M763.5279649601035,457.3242237970474 L763.1203405331064,458.1100925825925 M763.1203405331064,458.1100925825925 L763.0538751508269,458.93184548224247 M763.0538751508269,458.93184548224247 L763.3324996170817,459.741719068506 M763.3324996170817,459.741719068506 L763.940078301019,460.4926413955785 M763.940078301019,460.4926413955785 L764.8413659279254,461.1409259940848 M534.4406283382364,625.8109878357056 L528.6379689647797,625.2770328756876 M534.4579786369925,620.1989528711347 L528.6540147503445,619.6651154944232 M534.4579786369925,620.1989528711347 L534.4406283382364,625.8109878357056 M529.176274581293,640.0208881735682 L533.2095252574417,641.7030898994827 M533.2095252574417,641.7030898994827 L537.811105835209,642.7817484852021 M537.811105835209,642.7817484852021 L542.7175514694352,643.1949086356256 M542.7175514694352,643.1949086356256 L547.6477245493516,642.9188272606406 M547.6477245493516,642.9188272606406 L552.3191503044653,641.9693719367078 M552.3191503044653,641.9693719367078 L556.4643045700507,640.4010793483911 M556.4643045700507,640.4010793483911 L559.8460334658571,638.3039799798298 M559.8460334658571,638.3039799798298 L562.2711234750413,635.798343938196 M562.2711234750413,635.798343938196 L563.6014631174235,633.0277556886019 M563.6014631174235,633.0277556886019 L563.7616834681684,630.1507437205097 M563.7616834681684,630.1507437205097 L562.7434137174868,627.3317339164216 M562.7434137174868,627.3317339164216 L560.6055706953618,624.7316214984612 M560.6055706953618,624.7316214984612 L557.470805795764,622.4986188861451 M557.470805795764,622.4986188861451 L553.5183850524521,620.7598650852324 M553.5183850524521,620.7598650852324 L548.9739348357307,619.614267832585 M548.9739348357307,619.614267832585 L544.0965645414353,619.1269514732217 M544.0965645414353,619.1269514732217 L539.1642381311805,619.3256110199502 M539.1642381311805,619.3256110199502 L534.4579786369925,620.1989528711347 M498.5718359756586,637.2014243370535 L529.176274581293,640.0208881735682 M538.8767582554995,633.6277814715312 L537.9743050891183,632.9609587944987 M537.9743050891183,632.9609587944987 L537.3717101431171,632.1885821976967 M537.3717101431171,632.1885821976967 L537.1039489336642,631.3555628269812 M537.1039489336642,631.3555628269812 L537.186519346503,630.5103316610677 M537.186519346503,630.5103316610677 L537.6145343179785,629.701995364916 M537.6145343179785,629.701995364916 L538.363096012348,628.977522339429 M538.363096012348,628.977522339429 L539.3886396697244,628.3789748787381 M539.3886396697244,628.3789748787381 L540.6315756185509,627.9410917256232 M540.6315756185509,627.9410917256232 L542.0197111408092,627.6893024474555 M542.0197111408092,627.6893024474555 L543.4724058128911,627.638197956341 M543.4724058128911,627.638197956341 L544.9053202159674,627.7907550716145 M544.9053202159674,627.7907550716145 L546.2352394011533,628.1381187429052 M546.2352394011533,628.1381187429052 L547.3849212787829,628.6601364142585 M547.3849212787829,628.6601364142585 L548.287554541751,629.3264993957841 M548.287554541751,629.3264993957841 L548.8906759653516,630.0985284890596 M548.8906759653516,630.0985284890596 L549.1591882885162,630.9313819480469 M549.1591882885162,630.9313819480469 L549.0774356136506,631.7766803388976 M549.0774356136506,631.7766803388976 L548.6500658670685,632.5852715904491 M548.6500658670685,632.5852715904491 L547.9018995703786,633.3101697312266 M547.9018995703786,633.3101697312266 L546.8763590973966,633.9091850675992 M546.8763590973966,633.9091850675992 L545.6330333901788,634.3474716758997 M545.6330333901788,634.3474716758997 L544.2442562608612,634.5995375667462 M544.2442562608612,634.5995375667462 L542.7907446184007,634.6506876236906 M542.7907446184007,634.6506876236906 L541.3570768431873,634.497964598431 M541.3570768431873,634.497964598431 L540.0266264133414,634.150248009714 M540.0266264133414,634.150248009714 L538.8767582554995,633.6277814715312 M498.562534815759,642.8171989628319 L529.160085393697,645.6372819393157 M529.176274581293,640.0208881735682 L529.160085393697,645.6372819393157 M534.4406283382364,625.8109878357056 L539.1458318670616,624.9374536164946 M539.1458318670616,624.9374536164946 L544.0770506366719,624.7387503079119 M544.0770506366719,624.7387503079119 L548.95332454876,625.2261740135866 M548.95332454876,625.2261740135866 L553.4967519581382,626.3720235856874 M553.4967519581382,626.3720235856874 L557.4482816644461,628.111160260288 M557.4482816644461,628.111160260288 L560.5823381137718,630.3446544218925 M560.5823381137718,630.3446544218925 L562.719695820522,632.9453389768667 M562.719695820522,632.9453389768667 L563.7377313436291,635.7649688126671 M563.7377313436291,635.7649688126671 L563.577541563658,638.6426132778794 M563.577541563658,638.6426132778794 L562.2474958968278,641.4138103490732 M562.2474958968278,641.4138103490732 L559.8229467675376,643.9199967549664 M559.8229467675376,643.9199967549664 L556.4419749457975,646.01755658052 M556.4419749457975,646.01755658052 L552.2977507056405,647.586193414092 M552.2977507056405,647.586193414092 L547.627374647276,648.5358571039242 M547.627374647276,648.5358571039242 L542.698310682805,648.811999061244 M542.698310682805,648.811999061244 L537.7929698615841,648.3987482473879 M537.7929698615841,648.3987482473879 L533.1924263182696,647.3198529332826 M533.1924263182696,647.3198529332826 L529.160085393697,645.6372819393157 M538.8583957705198,639.2427709363939 L540.008004570273,639.7653522934943 M540.008004570273,639.7653522934943 L541.3381552689292,640.11314529213 M541.3381552689292,640.11314529213 L542.7715003793853,640.2659018765607 M542.7715003793853,640.2659018765607 L544.2246852022436,640.2147405800579 M544.2246852022436,640.2147405800579 L545.6131503897986,639.9626192996548 M545.6131503897986,639.9626192996548 L546.8561971760415,639.5242363758249 M546.8561971760415,639.5242363758249 L547.8815079829521,638.9250893919635 M547.8815079829521,638.9250893919635 L548.6295072130677,638.2000319209378 M548.6295072130677,638.2000319209378 L549.0567821814068,637.3912629215727 M549.0567821814068,637.3912629215727 L549.1385178580258,636.5457786888878 M549.1385178580258,636.5457786888878 L548.8700672658733,635.7127420992268 M548.8700672658733,635.7127420992268 L548.2670826891201,634.9405432274723 M548.2670826891201,634.9405432274723 L547.364653415292,634.2740336876386 M547.364653415292,634.2740336876386 L546.2152308092062,633.751901193893 M546.2152308092062,633.751901193893 L544.8856111147643,633.4044611115174 M544.8856111147643,633.4044611115174 L543.4530190374526,633.2518704362385 M543.4530190374526,633.2518704362385 L542.0006508219103,633.3029861695757 M542.0006508219103,633.3029861695757 L540.6128269491494,633.554830836256 M540.6128269491494,633.554830836256 L539.3701697508701,633.9928103093641 M539.3701697508701,633.9928103093641 L538.3448557617126,634.5914894198969 M538.3448557617126,634.5914894198969 L537.5964613081483,635.3161217753348 M537.5964613081483,635.3161217753348 L537.1685414096203,636.1246358230171 M537.1685414096203,636.1246358230171 L537.0859883586086,636.9700528286679 M537.0859883586086,636.9700528286679 L537.3536881745189,637.8032553292228 M537.3536881745189,637.8032553292228 L537.9561465109034,638.5758017021475 M537.9561465109034,638.5758017021475 L538.8583957705198,639.2427709363939 M696.9513484312257,547.3239239348217 L691.4395340319477,530.3302242485499 M697.0048790683492,541.7292817025434 L691.4917629940734,524.7393767097219 M697.0048790683492,541.7292817025434 L696.9513484312257,547.3239239348217 M663.3117387466134,545.1665429407495 L661.9439385730856,547.8871817562532 M661.9439385730856,547.8871817562532 L661.7358942552534,550.7249746235956 M661.7358942552534,550.7249746235956 L662.7002801951651,553.5178300662585 M662.7002801951651,553.5178300662585 L664.7827112703859,556.1059974219984 M664.7827112703859,556.1059974219984 L667.8646855261222,558.3412452567213 M667.8646855261222,558.3412452567213 L671.7703218359003,560.0954379753066 M671.7703218359003,560.0954379753066 L676.2762273066498,561.2678914660696 M676.2762273066498,561.2678914660696 L681.1244477811767,561.79128583699 M681.1244477811767,561.79128583699 L686.0371967506168,561.6355304326277 M686.0371967506168,561.6355304326277 L690.7330322410884,560.8096011434002 M690.7330322410884,560.8096011434002 L694.942990189875,559.3609267053173 M694.942990189875,559.3609267053173 L698.4261331770417,557.3726780610075 M698.4261331770417,557.3726780610075 L700.9834610764377,554.9589187361214 M700.9834610764377,554.9589187361214 L702.4691601999491,552.2579453661925 M702.4691601999491,552.2579453661925 L702.7990110491932,549.4243863791179 M702.7990110491932,549.4243863791179 L701.9549302368921,546.6202009947772 M701.9549302368921,546.6202009947772 L699.9858730295595,544.0054840748885 M699.9858730295595,544.0054840748885 L697.0048790683492,541.7292817025434 M662.2281804370589,541.7984875342827 L663.3117387466134,545.1665429407495 M678.0503408644537,552.3687649413689 L677.1463923769473,551.7104983401966 M677.1463923769473,551.7104983401966 L676.5392200613674,550.9480289610162 M676.5392200613674,550.9480289610162 L676.2640573978855,550.1256968783268 M676.2640573978855,550.1256968783268 L676.3368380218293,549.2913089587214 M676.3368380218293,549.2913089587214 L676.7532446567972,548.4933419216768 M676.7532446567972,548.4933419216768 L677.4890545142131,547.7781618065601 M677.4890545142131,547.7781618065601 L678.5014440716625,547.1872915939826 M678.5014440716625,547.1872915939826 L679.7315875472642,546.7550247054392 M679.7315875472642,546.7550247054392 L681.1080349993725,546.5064647749246 M681.1080349993725,546.5064647749246 L682.5508242395618,546.4560157215958 M682.5508242395618,546.4560157215958 L683.9761906029415,546.6066162163513 M683.9761906029415,546.6066162163513 L685.3013525466956,546.9495273603752 M685.3013525466956,546.9495273603752 L686.4493531188084,547.4648495371697 M686.4493531188084,547.4648495371697 L687.3534743307131,548.1226652261213 M687.3534743307131,548.1226652261213 L687.9611717135623,548.8847884397919 M687.9611717135623,548.8847884397919 L688.2370740495994,549.7069577932004 M688.2370740495994,549.7069577932004 L688.1651015246217,550.541411717053 M688.1651015246217,550.541411717053 L687.7493344906798,551.3396287502627 M687.7493344906798,551.3396287502627 L687.0139197040482,552.0552258950815 M687.0139197040482,552.0552258950815 L686.0015383807378,552.6465550087505 M686.0015383807378,552.6465550087505 L684.7710144163351,553.0792175447857 M684.7710144163351,553.0792175447857 L683.3939367182084,553.3280488509035 M683.3939367182084,553.3280488509035 L681.9503413639909,553.3785425272481 M681.9503413639909,553.3785425272481 L680.524229488306,553.2277793049204 M680.524229488306,553.2277793049204 L679.1985301506335,552.8845273406278 M679.1985301506335,552.8845273406278 L678.0503408644537,552.3687649413689 M662.1824133755563,547.3931452026416 L663.2657174201116,550.7619516339702 M663.3117387466134,545.1665429407495 L663.2657174201116,550.7619516339702 M696.9513484312257,547.3239239348217 L699.9316670507377,549.6006339153882 M699.9316670507377,549.6006339153882 L701.9002731942071,552.2159337066385 M701.9002731942071,552.2159337066385 L702.7441532297391,555.0207439278162 M702.7441532297391,555.0207439278162 L702.4143636885245,557.8549340122185 M702.4143636885245,557.8549340122185 L700.9289847977649,560.5565086833377 M700.9289847977649,560.5565086833377 L698.3722180507973,562.9708051487451 M698.3722180507973,562.9708051487451 L694.8898452214127,564.9594960875723 M694.8898452214127,564.9594960875723 L690.6808224348563,566.4084927008453 M690.6808224348563,566.4084927008453 L685.9860335103004,567.2346056375707 M685.9860335103004,567.2346056375707 L681.0743824227725,567.3903956718228 M681.0743824227725,567.3903956718228 L676.2272480777401,566.8668849285461 M676.2272480777401,566.8668849285461 L671.7223545889931,565.6941707171413 M671.7223545889931,565.6941707171413 L667.8175980626279,563.9395878240207 M667.8175980626279,563.9395878240207 L664.7363210256043,561.7038426576867 M664.7363210256043,561.7038426576867 L662.6543648530293,559.115099225062 M662.6543648530293,559.115099225062 L661.690204584771,556.3216218780753 M661.690204584771,556.3216218780753 L661.8982127699404,553.4831968151955 M661.8982127699404,553.4831968151955 L663.2657174201116,550.7619516339702 M678.0009999483252,557.9657782635935 L679.1489306471173,558.4816555019262 M679.1489306471173,558.4816555019262 L680.4743323966795,558.8249838890606 M680.4743323966795,558.8249838890606 L681.9001250003382,558.9757806765226 M681.9001250003382,558.9757806765226 L683.3433979786766,558.9252757586205 M683.3433979786766,558.9252757586205 L684.7201689708713,558.6763890531208 M684.7201689708713,558.6763890531208 L685.9504197373277,558.2436301845759 M685.9504197373277,558.2436301845759 L686.9625772716063,557.6521694004231 M686.9625772716063,557.6521694004231 L687.6978306809401,556.9364128978568 M687.6978306809401,556.9364128978568 L688.1135081074827,556.138018086584 M688.1135081074827,556.138018086584 L688.1854679864653,555.3033782897522 M688.1854679864653,555.3033782897522 L687.9096306627124,554.4810257754615 M687.9096306627124,554.4810257754615 L687.3020721479801,553.7187327563288 M687.3020721479801,553.7187327563288 L686.3981555676392,553.0607704855933 M686.3981555676392,553.0607704855933 L685.2504134947575,552.5453334682275 M685.2504134947575,552.5453334682275 L683.9255488986961,552.2023459005303 M683.9255488986961,552.2023459005303 L682.5005014736423,552.0517118405281 M682.5005014736423,552.0517118405281 L681.0580342535637,552.1021721378338 M681.0580342535637,552.1021721378338 L679.6818932227455,552.3507874655286 M679.6818932227455,552.3507874655286 L678.4520227808715,552.7831506892427 M678.4520227808715,552.7831506892427 L677.4398570179708,553.3741525726199 M677.4398570179708,553.3741525726199 L676.704208711842,554.0894920433824 M676.704208711842,554.0894920433824 L676.2878919751836,554.8876368610506 M676.2878919751836,554.8876368610506 L676.215124354333,555.722210651292 M676.215124354333,555.722210651292 L676.4902223353183,556.5447258947517 M676.4902223353183,556.5447258947517 L677.0972560149396,557.3073650797531 M677.0972560149396,557.3073650797531 L678.0009999483252,557.9657782635935 M538.8583957705198,639.2427709363939 L538.8767582554995,633.6277814715312 M678.0009999483252,557.9657782635935 L678.0503408644537,552.3687649413689" stroke="black"  stroke-width="4"  fill="red"/>
<path d="M425.78519792688405,437.44197241515286 L422.19116427380266,435.38092619705395 M422.19116427380266,435.38092619705395 L323.6893261653855,491.6860545464669 M323.6893261653855,491.6860545464669 L327.28323584040834,493.7658219135749 M425.78519792688405,437.44197241515286 L327.28323584040834,493.7658219135749 M422.19116427380266,435.38092619705395 L422.1717886527267,421.46198406693793 M425.76780718282123,423.52186054291064 L422.1717886527267,421.46198406693793 M425.78519792688405,437.44197241515286 L425.76780718282123,423.52186054291064 M323.6893261653855,491.6860545464669 L323.6151370286148,477.735292425848 M422.1717886527267,421.46198406693793 L323.6151370286148,477.735292425848 M327.21103137425354,479.813889845262 L327.28323584040834,493.7658219135749 M323.6151370286148,477.735292425848 L327.21103137425354,479.813889845262 M425.76780718282123,423.52186054291064 L327.21103137425354,479.813889845262" stroke="black"  stroke-width="4"  fill="red"/>
<path d="M434.97715254867654,461.0584217835133 L445.04641597437137,466.84129387336003 M368.5955729734198,499.10391125318506 L434.97715254867654,461.0584217835133 M368.5955729734198,499.10391125318506 L378.6646933665202,504.922182449701 M378.6646933665202,504.922182449701 L390.080421570526,496.2681126159554 M390.080421570526,496.2681126159554 L402.4880326035351,488.0972165516716 M402.4880326035351,488.0972165516716 L415.82791539422846,480.44652542365674 M415.82791539422846,480.44652542365674 L430.03647042444913,473.3505788739155 M430.03647042444913,473.3505788739155 L445.04641597437137,466.84129387336003 M440.98463783300724,443.67864002521947 L439.4286262726397,449.46402476652673 M439.4286262726397,449.46402476652673 L437.4180325914469,455.28059483482394 M437.4180325914469,455.28059483482394 L434.97715254867654,461.0584217835133 M445.04641597437137,466.84129387336003 L448.8516154836836,459.3110280023604 M448.8516154836836,459.3110280023604 L450.72263873855377,454.6757463765903 M450.72263873855377,454.6757463765903 L452.20765233230605,450.1133432415784 M440.98463783300724,443.67864002521947 L452.20765233230605,450.1133432415784 M440.98463783300724,443.67864002521947 L362.4862641393957,488.61829976094714 M368.5955729734198,499.10391125318506 L366.11982301774447,496.1295970276459 M366.11982301774447,496.1295970276459 L364.07498543882303,492.6203304875588 M364.07498543882303,492.6203304875588 L362.4862641393957,488.61829976094714 M362.4862641393957,488.61829976094714 L373.70909208487916,495.0996091240774 M373.70909208487916,495.0996091240774 L375.44850287737233,499.9908310945596 M375.44850287737233,499.9908310945596 L376.90404567219014,502.63315735722216 M376.90404567219014,502.63315735722216 L378.6646933665202,504.922182449701 M373.70909208487916,495.0996091240774 L384.50475000270643,486.3544400389912 M384.50475000270643,486.3544400389912 L396.2930401775347,478.06170377446597 M396.2930401775347,478.06170377446597 L409.01857353957064,470.25807598731444 M409.01857353957064,470.25807598731444 L422.6220416425569,462.9779294227556 M422.6220416425569,462.9779294227556 L437.0405018567193,456.25321507702984 M437.0405018567193,456.25321507702984 L452.20765233230605,450.1133432415784" stroke="black"  stroke-width="4"  fill="red"/>
<path d="M531.6047495759074,352.22242324174937 L530.1769823436666,354.2682034307229 M530.1769823436666,354.2682034307229 L433.83051408294256,299.64986963929283 M433.9098552135263,385.4654862001148 L433.83051408294256,299.64986963929283 M433.9098552135263,385.4654862001148 L266.28411735312295,177.3456392850446 M322.3325805025054,93.02427902332983 L266.28411735312295,177.3456392850446 M531.6047495759074,352.22242324174937 L322.3325805025054,93.02427902332983 M416.0592656015426,418.1598263603283 L531.6047495759074,352.22242324174937 M414.64455593112956,420.20472983903034 L416.0592656015426,418.1598263603283 M414.64455593112956,420.20472983903034 L530.1769823436666,354.2682034307229 M318.2996465106138,365.0027156099735 L414.64455593112956,420.20472983903034 M334.3270065054948,355.93644950229145 L318.2996465106138,365.0027156099735 M334.3270065054948,355.93644950229145 L347.03102623776283,361.03890923292556 M347.03102623776283,361.03890923292556 L359.8564025124291,365.405435110989 M359.8564025124291,365.405435110989 L372.0741072215912,368.83266153838815 M372.0741072215912,368.83266153838815 L383.6548313023997,371.38807532975466 M383.6548313023997,371.38807532975466 L394.40678458948275,373.09529258711046 M394.40678458948275,373.09529258711046 L404.200211321431,374.0073675786999 M404.200211321431,374.0073675786999 L412.966658860863,374.19679060064806 M412.966658860863,374.19679060064806 L420.69224114432427,373.74429590040626 M420.69224114432427,373.74429590040626 L427.40593844004053,372.7276922086067 M427.40593844004053,372.7276922086067 L433.1640402948251,371.21184128795153 M433.1640402948251,371.21184128795153 L436.58754579773915,369.910707210685 M436.58754579773915,369.910707210685 L439.644630388817,368.38714320566316 M439.644630388817,368.38714320566316 L443.73825491998457,365.506594317503 M443.73825491998457,365.506594317503 L446.81600293963857,362.1082041160526 M446.81600293963857,362.1082041160526 L448.89062038486884,358.10100102965106 M448.89062038486884,358.10100102965106 L449.8361181249975,353.4695728324256 M449.8361181249975,353.4695728324256 L449.5103746810245,348.18362666752034 M449.5103746810245,348.18362666752034 L447.7479508575636,342.23798775951417 M447.7479508575636,342.23798775951417 L444.3868978397833,335.6642816554316 M444.3868978397833,335.6642816554316 L439.2974608170631,328.53910238988595 M439.2974608170631,328.53910238988595 L432.4098454900043,320.98768673375287 M432.4098454900043,320.98768673375287 L425.6406736815207,314.77911698368007 M425.6406736815207,314.77911698368007 L417.9490010280355,308.63363387709626 M433.83051408294256,299.64986963929283 L417.9490010280355,308.63363387709626 M318.7733205860774,451.0502479527575 L318.2996465106138,365.0027156099735 M334.3270065054948,355.93644950229145 L333.38332523281423,365.00946280387785 M333.38332523281423,365.00946280387785 L333.4037132264464,373.6325812267771 M333.4037132264464,373.6325812267771 L334.2491730111217,380.8681448155116 M334.2491730111217,380.8681448155116 L335.8582211353446,387.43214325305064 M335.8582211353446,387.43214325305064 L338.1896776391938,393.1989928121736 M338.1896776391938,393.1989928121736 L341.184858800562,398.06806377820004 M341.184858800562,398.06806377820004 L344.77141779983936,401.96573229015445 M344.77141779983936,401.96573229015445 L348.86774738160784,404.84533057770255 M348.86774738160784,404.84533057770255 L353.3874263230079,406.684931354437 M353.3874263230079,406.684931354437 L358.24317608638904,407.48368545921187 M358.24317608638904,407.48368545921187 L363.34985469224307,407.2572549998226 M363.34985469224307,407.2572549998226 L368.6262443390497,406.0332201852318 M368.6262443390497,406.0332201852318 L373.99552090716014,403.84707436915255 M373.99552090716014,403.84707436915255 L379.384559889656,400.73952157318377 M379.384559889656,400.73952157318377 L385.30861900764285,396.2612112601786 M385.30861900764285,396.2612112601786 L391.0714896435349,390.77029340075023 M391.0714896435349,390.77029340075023 L396.57371333731805,384.34601781305463 M396.57371333731805,384.34601781305463 L401.7115957086243,377.08319580253317 M401.7115957086243,377.08319580253317 L406.3773352179667,369.09751156171495 M406.3773352179667,369.09751156171495 L410.4613871630975,360.52977590920136 M410.4613871630975,360.52977590920136 L413.8569558932423,351.5478304504206 M413.8569558932423,351.5478304504206 L416.466117822322,342.34508051477167 M416.466117822322,342.34508051477167 L418.2067577929302,333.1355862678121 M418.2067577929302,333.1355862678121 L419.01930924558434,324.1456913985734 M419.01930924558434,324.1456913985734 L418.90850336024164,316.10249484879677 M418.90850336024164,316.10249484879677 L417.9490010280355,308.63363387709626 M318.7733205860774,451.0502479527575 L433.9098552135263,385.4654862001148 M318.7733205860774,451.0502479527575 L150.64022230478193,241.6158738630707 M266.28411735312295,177.3456392850446 L150.64022230478193,241.6158738630707 M206.14644485855482,157.31299235104714 L322.3325805025054,93.02427902332983 M150.64022230478193,241.6158738630707 L206.14644485855482,157.31299235104714 M256.91662491373495,136.38519346678322 L263.2569469142786,133.09214717195073 M263.2569469142786,133.09214717195073 L269.00992918543557,130.5540855464577 M269.00992918543557,130.5540855464577 L274.0583553935014,128.82215057328415 M274.0583553935014,128.82215057328415 L278.2998348005853,127.93078080263285 M278.2998348005853,127.93078080263285 L281.6487922369266,127.89701636476076 M281.6487922369266,127.89701636476076 L284.03817511972557,128.7203369027618 M284.03817511972557,128.7203369027618 L285.42074819581336,130.3826683475699 M285.42074819581336,130.3826683475699 L285.76987958736123,132.84891816230868 M285.76987958736123,132.84891816230868 L285.0800491008893,136.06777610450757 M285.0800491008893,136.06777610450757 L283.3667480961109,139.9728779117438 M283.3667480961109,139.9728779117438 L280.66609015310314,144.48419003657895 M280.66609015310314,144.48419003657895 L277.03399446382826,149.50964211346795 M277.03399446382826,149.50964211346795 L272.5448874376922,154.94710075695465 M272.5448874376922,154.94710075695465 L267.29027432900256,160.6864086416523 M267.29027432900256,160.6864086416523 L261.3767485776465,166.61152022131915 M261.3767485776465,166.61152022131915 L254.92395970374142,172.6029393347264 M254.92395970374142,172.6029393347264 L248.06212118331254,178.53989981890763 M248.06212118331254,178.53989981890763 L240.9295645441538,184.30282680322483 M240.9295645441538,184.30282680322483 L233.66994641228658,189.77561467872226 M233.66994641228658,189.77561467872226 L226.42949466980767,194.848008611093 M226.42949466980767,194.848008611093 L219.35416754207918,199.41754503203325 M219.35416754207918,199.41754503203325 L212.5867442641681,203.39182243030712 M212.5867442641681,203.39182243030712 L206.2640616759954,206.690108225705 M206.2640616759954,206.690108225705 L200.51429218279802,209.24514740325392 M200.51429218279802,209.24514740325392 L195.4543911884987,211.00435990408633 M195.4543911884987,211.00435990408633 L191.18768010857286,211.9311814366813 M191.18768010857286,211.9311814366813 L187.80177741740576,212.00561549028168 M187.80177741740576,212.00561549028168 L185.3667292065012,211.22495060054905 M185.3667292065012,211.22495060054905 L183.933470187738,209.60378348532691 M183.933470187738,209.60378348532691 L183.53273848842605,207.17389354315534 M183.53273848842605,207.17389354315534 L184.17423413972813,203.98358240957367 M184.17423413972813,203.98358240957367 L185.84638198518383,200.09696465489714 M185.84638198518383,200.09696465489714 L188.51638427172549,195.59256591376047 M188.51638427172549,195.59256591376047 L192.13085795182357,190.5618636457901 M192.13085795182357,190.5618636457901 L196.61675181608658,185.10744938821813 M196.61675181608658,185.10744938821813 L201.88283907949466,179.34086431646614 M201.88283907949466,179.34086431646614 L207.82159634456406,173.3803009339381 M207.82159634456406,173.3803009339381 L214.31133041060167,167.34819025077272 M214.31133041060167,167.34819025077272 L221.21883467056182,161.36857359556353 M221.21883467056182,161.36857359556353 L228.40207807410437,155.56450328601983 M228.40207807410437,155.56450328601983 L235.71329710603675,150.05535526205549 M235.71329710603675,150.05535526205549 L243.0020841907312,144.9544143430937 M243.0020841907312,144.9544143430937 L250.11856430934935,140.36637264934404 M250.11856430934935,140.36637264934404 L256.91662491373495,136.38519346678322 M416.0592656015426,418.1598263603283 L206.14644485855482,157.31299235104714 M439.644630388817,368.38714320566316 L431.67437632044,358.26764384312463 M431.67437632044,358.26764384312463 L423.70645171087904,348.1511136485387 M423.70645171087904,348.1511136485387 L415.7408589934049,338.03754254038915 M415.7408589934049,338.03754254038915 L407.77759250948674,327.9269158274968 M407.77759250948674,327.9269158274968 L399.81665358553386,317.8192550584181 M399.81665358553386,317.8192550584181 L391.8580411835634,307.7145481739497 M391.8580411835634,307.7145481739497 L383.90175888916633,297.61279649572225 M383.90175888916633,297.61279649572225 L375.94779647025246,287.5139934946428 M375.94779647025246,287.5139934946428 L367.996157515971,277.4181404963882 M367.996157515971,277.4181404963882 L360.04684100839563,267.32523620854096 M360.04684100839563,267.32523620854096 L352.09984593019425,257.2352793394384 M352.09984593019425,257.2352793394384 L344.155171168409,247.14824702159027 M344.155171168409,247.14824702159027 L336.2128158925917,237.0641811125758 M336.2128158925917,237.0641811125758 L328.2727789977193,226.98305875184604 M328.2727789977193,226.98305875184604 L320.33506864165275,216.90488384295048 M320.33506864165275,216.90488384295048 L312.39966545967457,206.8296447085542 M312.39966545967457,206.8296447085542 L304.4665776155457,196.7573452587554 M304.4665776155457,196.7573452587554 L296.53580409608344,186.68798420715984 M296.53580409608344,186.68798420715984 L288.6073347347144,176.62155509607757 M288.6073347347144,176.62155509607757 L280.68119583132403,166.55805053684125 M280.68119583132403,166.55805053684125 L272.75736835054096,156.49750212558146 M272.75736835054096,156.49750212558146 L264.8358328584501,146.4398766504788 M264.8358328584501,146.4398766504788 L256.91662491373495,136.38519346678322" stroke="black"  stroke-width="4"  fill="red"/>
<path d="M542.331643969985,494.87531615548227 L542.7840467831154,361.4150855750743 M433.95359192341147,432.77124927056906 L433.83051408294256,299.64986963929283 M542.331643969985,494.87531615548227 L433.95359192341147,432.77124927056906 M542.7840467831154,361.4150855750743 L433.83051408294256,299.64986963929283 M427.41107419613076,561.2469359159828 L427.25175326401677,427.42818036427803 M427.41107419613076,561.2469359159828 L542.331643969985,494.87531615548227 M427.25175326401677,427.42818036427803 L542.7840467831154,361.4150855750743 M433.95359192341147,432.77124927056906 L319.03442558831375,498.48252742216295 M319.03442558831375,498.48252742216295 L318.2996465106138,365.0027156099735 M334.3270065054948,355.93644950229145 L318.2996465106138,365.0027156099735 M334.3270065054948,355.93644950229145 L333.38332523281423,365.00946280387785 M333.38332523281423,365.00946280387785 L333.4037132264464,373.6325812267771 M333.4037132264464,373.6325812267771 L334.2491730111217,380.8681448155116 M334.2491730111217,380.8681448155116 L335.8582211353446,387.43214325305064 M335.8582211353446,387.43214325305064 L338.1896776391938,393.1989928121736 M338.1896776391938,393.1989928121736 L341.184858800562,398.06806377820004 M341.184858800562,398.06806377820004 L344.77141779983936,401.96573229015445 M344.77141779983936,401.96573229015445 L348.86774738160784,404.84533057770255 M348.86774738160784,404.84533057770255 L353.3874263230079,406.684931354437 M353.3874263230079,406.684931354437 L358.24317608638904,407.48368545921187 M358.24317608638904,407.48368545921187 L363.34985469224307,407.2572549998226 M363.34985469224307,407.2572549998226 L368.6262443390497,406.0332201852318 M368.6262443390497,406.0332201852318 L373.99552090716014,403.84707436915255 M373.99552090716014,403.84707436915255 L379.384559889656,400.73952157318377 M379.384559889656,400.73952157318377 L385.30861900764285,396.2612112601786 M385.30861900764285,396.2612112601786 L391.0714896435349,390.77029340075023 M391.0714896435349,390.77029340075023 L396.57371333731805,384.34601781305463 M396.57371333731805,384.34601781305463 L401.7115957086243,377.08319580253317 M401.7115957086243,377.08319580253317 L406.3773352179667,369.09751156171495 M406.3773352179667,369.09751156171495 L410.4613871630975,360.52977590920136 M410.4613871630975,360.52977590920136 L413.8569558932423,351.5478304504206 M413.8569558932423,351.5478304504206 L416.466117822322,342.34508051477167 M416.466117822322,342.34508051477167 L418.2067577929302,333.1355862678121 M418.2067577929302,333.1355862678121 L419.01930924558434,324.1456913985734 M419.01930924558434,324.1456913985734 L418.90850336024164,316.10249484879677 M418.90850336024164,316.10249484879677 L417.9490010280355,308.63363387709626 M433.83051408294256,299.64986963929283 L417.9490010280355,308.63363387709626 M319.03442558831375,498.48252742216295 L427.41107419613076,561.2469359159828 M368.5955729734198,499.10391125318506 L440.89521753980205,540.881040046597 M440.89521753980205,540.881040046597 L507.2771901213969,502.5810090571007 M434.97715254867654,461.0584217835133 L507.2771901213969,502.5810090571007 M368.5955729734198,499.10391125318506 L434.97715254867654,461.0584217835133 M318.2996465106138,365.0027156099735 L427.25175326401677,427.42818036427803 M334.3270065054948,355.93644950229145 L347.03102623776283,361.03890923292556 M347.03102623776283,361.03890923292556 L359.8564025124291,365.405435110989 M359.8564025124291,365.405435110989 L372.0741072215912,368.83266153838815 M372.0741072215912,368.83266153838815 L383.6548313023997,371.38807532975466 M383.6548313023997,371.38807532975466 L394.40678458948275,373.09529258711046 M394.40678458948275,373.09529258711046 L404.200211321431,374.0073675786999 M404.200211321431,374.0073675786999 L412.966658860863,374.19679060064806 M412.966658860863,374.19679060064806 L420.69224114432427,373.74429590040626 M420.69224114432427,373.74429590040626 L427.40593844004053,372.7276922086067 M427.40593844004053,372.7276922086067 L433.1640402948251,371.21184128795153 M433.1640402948251,371.21184128795153 L436.58754579773915,369.910707210685 M436.58754579773915,369.910707210685 L439.644630388817,368.38714320566316 M439.644630388817,368.38714320566316 L443.73825491998457,365.506594317503 M443.73825491998457,365.506594317503 L446.81600293963857,362.1082041160526 M446.81600293963857,362.1082041160526 L448.89062038486884,358.10100102965106 M448.89062038486884,358.10100102965106 L449.8361181249975,353.4695728324256 M449.8361181249975,353.4695728324256 L449.5103746810245,348.18362666752034 M449.5103746810245,348.18362666752034 L447.7479508575636,342.23798775951417 M447.7479508575636,342.23798775951417 L444.3868978397833,335.6642816554316 M444.3868978397833,335.6642816554316 L439.2974608170631,328.53910238988595 M439.2974608170631,328.53910238988595 L432.4098454900043,320.98768673375287 M432.4098454900043,320.98768673375287 L425.6406736815207,314.77911698368007 M425.6406736815207,314.77911698368007 L417.9490010280355,308.63363387709626 M475.4245525921559,413.8153788030846 L467.87146537360456,404.2255399161031 M467.87146537360456,404.2255399161031 L460.3204692333222,394.6383671382605 M460.3204692333222,394.6383671382605 L452.77156417851324,385.05384911889905 M452.77156417851324,385.05384911889905 L445.22474904640717,375.47197383680407 M445.22474904640717,375.47197383680407 L439.644630388817,368.38714320566316 M492.9499261542634,423.7910313763289 L496.18321250810686,419.44158076413345 M496.18321250810686,419.44158076413345 L498.59370389319884,415.56692582629523 M498.59370389319884,415.56692582629523 L500.13253307578805,412.24463819610736 M500.13253307578805,412.24463819610736 L500.7679776616008,409.54154393192044 M500.7679776616008,409.54154393192044 L500.4861896183173,407.51236374691894 M500.4861896183173,407.51236374691894 L499.2915662419027,406.1984747294093 M499.2915662419027,406.1984747294093 L497.20675097506864,405.6271121017008 M497.20675097506864,405.6271121017008 L494.2722804756107,405.8107180659934 M494.2722804756107,405.8107180659934 L490.54586322584083,406.7465697864637 M490.54586322584083,406.7465697864637 L486.1013030280275,408.4168278082291 M486.1013030280275,408.4168278082291 L481.0270680240213,410.78875285755913 M481.0270680240213,410.78875285755913 L475.4245525921559,413.8153788030846 M490.6457974792303,422.02114633336834 L492.9499261542634,423.7910313763289 M489.87519166059747,427.4840057615804 L490.6457974792303,422.02114633336834 M482.57543465772915,435.3081129956501 L485.1745618999683,432.6385747686476 M485.1745618999683,432.6385747686476 L487.61215282927185,430.0259050714103 M487.61215282927185,430.0259050714103 L489.87519166059747,427.4840057615804 M430.4480084599999,401.7766981477104 L448.0074936378998,412.27920874515144 M448.0074936378998,412.27920874515144 L465.5664233922862,423.63639645407363 M465.5664233922862,423.63639645407363 L482.57543465772915,435.3081129956501 M401.73388409868454,433.28653400879836 L407.6606528058312,429.3432809428231 M407.6606528058312,429.3432809428231 L413.46524246917755,424.3629632986778 M413.46524246917755,424.3629632986778 L419.06824005652186,418.4034871897934 M419.06824005652186,418.4034871897934 L424.35787851984526,411.5595841870575 M424.35787851984526,411.5595841870575 L427.51101357267447,406.7934095741816 M427.51101357267447,406.7934095741816 L430.4480084599999,401.7766981477104 M372.87694961909966,434.6086572136962 L377.2054472681659,436.83410902530414 M377.2054472681659,436.83410902530414 L381.95090790448216,438.0230236003887 M381.95090790448216,438.0230236003887 L386.9363711022338,438.1631648861833 M386.9363711022338,438.1631648861833 L392.1217370189947,437.2946878257724 M392.1217370189947,437.2946878257724 L396.89812792618784,435.67648884458475 M396.89812792618784,435.67648884458475 L401.73388409868454,433.28653400879836 M408.7723120375152,477.61234358119833 L396.08147051832503,463.66590921675373 M396.08147051832503,463.66590921675373 L384.0599245533768,449.3449561706313 M384.0599245533768,449.3449561706313 L372.87694961909966,434.6086572136962 M409.91121024970397,473.30623377278505 L409.2867969779749,474.91364140954823 M409.2867969779749,474.91364140954823 L408.9065398076611,476.35154433631845 M408.9065398076611,476.35154433631845 L408.7723120375152,477.61234358119833 M409.1319384271993,468.7126226412257 L409.91121024970397,473.30623377278505 M411.3180732424698,470.5617347929564 L409.1319384271993,468.7126226412257 M475.4245525921559,413.8153788030846 L469.4060447488886,417.43634925558837 M469.4060447488886,417.43634925558837 L463.09245689116756,421.57918586494986 M463.09245689116756,421.57918586494986 L456.6108475902213,426.16067912181273 M456.6108475902213,426.16067912181273 L450.09181313689294,431.0886548928159 M450.09181313689294,431.0886548928159 L443.6667825651899,436.2638004506463 M443.6667825651899,436.2638004506463 L437.46529648772747,441.58179337974764 M437.46529648772747,441.58179337974764 L431.6123149462454,446.9353946540431 M431.6123149462454,446.9353946540431 L426.225644639017,452.21670769488406 M426.225644639017,452.21670769488406 L421.4135068434092,457.31944193814996 M421.4135068434092,457.31944193814996 L417.2723178968,462.141014212849 M417.2723178968,462.141014212849 L413.8847449822026,466.5847339269479 M413.8847449822026,466.5847339269479 L411.3180732424698,470.5617347929564 M368.5955729734198,499.10391125318506 L365.47285407548117,495.1518864985925 M365.47285407548117,495.1518864985925 L363.08442073028397,490.3244833973212 M363.08442073028397,490.3244833973212 L361.4796144663641,484.71894481609087 M361.4796144663641,484.71894481609087 L360.69188039495185,478.448599626703 M360.69188039495185,478.448599626703 L360.73800518809344,471.64059867100053 M360.73800518809344,471.64059867100053 L361.6177040971752,464.43332909395843 M361.6177040971752,464.43332909395843 L363.3135876182196,456.973574282595 M363.3135876182196,456.973574282595 L365.7914720198937,449.4134786959603 M365.7914720198937,449.4134786959603 L369.0010587232,441.9073918776088 M369.0010587232,441.9073918776088 L372.87694961909966,434.6086572136962 M417.63489999619014,468.8802826582113 L413.0785737318385,473.2573336103756 M413.0785737318385,473.2573336103756 L408.7723120375152,477.61234358119833 M410.60701954976383,488.4468441741881 L412.3889889956433,481.92428981339395 M412.3889889956433,481.92428981339395 L414.74356798595295,475.3686735547621 M414.74356798595295,475.3686735547621 L417.63489999619014,468.8802826582113 M410.60701954976383,488.4468441741881 L434.80094644251824,502.38787302149035 M440.89521753980205,540.881040046597 L437.9834670972499,537.2380230546268 M437.9834670972499,537.2380230546268 L435.70442865297184,532.8294934887349 M435.70442865297184,532.8294934887349 L434.0988097457994,527.7322102438256 M434.0988097457994,527.7322102438256 L433.1955010019525,522.0352474196362 M433.1955010019525,522.0352474196362 L433.0110140764441,515.8384544299175 M433.0110140764441,515.8384544299175 L433.5491675142735,509.25067251944984 M433.5491675142735,509.25067251944984 L434.80094644251824,502.38787302149035 M513.3872502368547,457.19832653351693 L514.6216051354572,462.6086015871028 M514.6216051354572,462.6086015871028 L515.1473008719436,468.5606045700338 M515.1473008719436,468.5606045700338 L514.9557466167278,474.9501307972172 M514.9557466167278,474.9501307972172 L514.050806391454,481.66557308239754 M514.050806391454,481.66557308239754 L512.4486644262652,488.5898263852019 M512.4486644262652,488.5898263852019 L510.17754201614997,495.6023061394845 M510.17754201614997,495.6023061394845 L507.2771901213969,502.5810090571007 M513.3872502368547,457.19832653351693 L514.7610602687737,449.4843692038087 M514.7610602687737,449.4843692038087 L515.2312526685178,442.12888412100773 M515.2312526685178,442.12888412100773 L514.7866834544341,435.2954153567713 M514.7866834544341,435.2954153567713 L513.4364017491553,429.13625106972904 M513.4364017491553,429.13625106972904 L511.20953132914474,423.7890572542906 M511.20953132914474,423.7890572542906 L508.15468144803407,419.37375356088035 M508.15468144803407,419.37375356088035 L504.33899546411084,415.98984769455706 M504.33899546411084,415.98984769455706 L499.8467161262676,413.7140565360703 M499.8467161262676,413.7140565360703 L494.77740759919294,412.598575380711 M494.77740759919294,412.598575380711 L489.24378605347283,412.6696871118148 M489.24378605347283,412.6696871118148 L483.36924656489845,413.9271634914741 M483.36924656489845,413.9271634914741 L477.2851202553965,416.34405465913454 M477.2851202553965,416.34405465913454 L471.1277282048549,419.86724917877183 M471.1277282048549,419.86724917877183 L465.0352897583708,424.41855958380785 M465.0352897583708,424.41855958380785 L459.14477225975196,429.8964241599686 M459.14477225975196,429.8964241599686 L453.58874343250153,436.17819954778713 M453.58874343250153,436.17819954778713 L448.49231864753995,443.1228688871025 M448.49231864753995,443.1228688871025 L443.97026996360125,450.5743553497964 M443.97026996360125,450.5743553497964 L440.1243772720205,458.3649855780231 M440.1243772720205,458.3649855780231 L437.04107049311483,466.3194670009766 M437.04107049311483,466.3194670009766 L434.7894681545654,474.2588160229693 M434.7894681545654,474.2588160229693 L433.41977929682366,482.0045881724981 M433.41977929682366,482.0045881724981 L432.9622242820118,489.3828680269567 M432.9622242820118,489.3828680269567 L433.4263629476554,496.22831094239416 M433.4263629476554,496.22831094239416 L434.80094644251824,502.38787302149035 M430.4480084599999,401.7766981477104 L434.32438311820795,404.63917325938564 M434.32438311820795,404.63917325938564 L437.5386879005897,408.46162515288347 M437.5386879005897,408.46162515288347 L440.026649895651,413.16568818047415 M440.026649895651,413.16568818047415 L441.7387862174603,418.6553963249835 M441.7387862174603,418.6553963249835 L442.64132083301325,424.8191815128868 M442.64132083301325,424.8191815128868 L442.7167968175068,431.5321517936774 M442.7167968175068,431.5321517936774 L441.9643573166379,438.65862923108284 M441.9643573166379,438.65862923108284 L440.3997228276507,446.05485614227706 M440.3997228276507,446.05485614227706 L438.0548291119023,453.5718645655941 M438.0548291119023,453.5718645655941 L434.97715254867654,461.0584217835133 M489.1933618748614,443.35790924244253 L513.3872502368547,457.19832653351693 M482.2027466667636,431.8805917957894 L485.0789439166847,435.0483551070833 M485.0789439166847,435.0483551070833 L487.4207992606217,438.8937433270439 M487.4207992606217,438.8937433270439 L489.1933618748614,443.35790924244253 M482.57543465772915,435.3081129956501 L482.65337109827897,433.3828306161706 M482.65337109827897,433.3828306161706 L482.2027466667636,431.8805917957894 M492.9499261542634,423.7910313763289 L495.0731197298946,419.811870482122 M495.0731197298946,419.811870482122 L496.32797569611483,416.4290576611612 M496.32797569611483,416.4290576611612 L496.6902314320108,413.7283056064395 M496.6902314320108,413.7283056064395 L496.1735917783726,411.7405529169212 M496.1735917783726,411.7405529169212 L494.8076111379221,410.4890729252669 M494.8076111379221,410.4890729252669 L492.6394556864967,409.978795455397 M492.6394556864967,409.978795455397 L489.7293166785795,410.19902161473783 M489.7293166785795,410.19902161473783 L486.1457847993937,411.1268657576425 M486.1457847993937,411.1268657576425 L481.9618491699999,412.7307685886614 M481.9618491699999,412.7307685886614 L477.2520383338778,414.97359102942096 M477.2520383338778,414.97359102942096 L472.09103868593394,417.814623808094 M472.09103868593394,417.814623808094 L465.9190060269025,421.61991506570706 M465.9190060269025,421.61991506570706 L459.38904825133824,426.0454661973191 M459.38904825133824,426.0454661973191 L452.6127050892013,431.0201361384631 M452.6127050892013,431.0201361384631 L445.71134253830024,436.46223584350577 M445.71134253830024,436.46223584350577 L438.8188729082643,442.2759668578714 M438.8188729082643,442.2759668578714 L432.08227810569815,448.34884223685236 M432.08227810569815,448.34884223685236 L425.65926554216236,454.5512120030697 M425.65926554216236,454.5512120030697 L419.71299161307815,460.73829779519724 M419.71299161307815,460.73829779519724 L415.24189174162046,465.7664656457323 M415.24189174162046,465.7664656457323 L411.3180732424698,470.5617347929564 M409.1319384271993,468.7126226412257 L408.7568298608418,475.8480006861044 M408.7568298608418,475.8480006861044 L409.25228169483637,482.4727085602324 M409.25228169483637,482.4727085602324 L410.60701954976383,488.4468441741881 M489.1933618748614,443.35790924244253 L490.53428734891577,435.86236404324694 M490.53428734891577,435.86236404324694 L491.0220574679047,428.69996530402494 M491.0220574679047,428.69996530402494 L490.6457974792303,422.02114633336834 M482.2027466667636,431.8805917957894 L489.87519166059747,427.4840057615804 M409.91121024970397,473.30623377278505 L417.63489999619014,468.8802826582113" stroke="black"  stroke-width="4"  fill="red"/>
<path d="M172.87091375124135,514.947617195616 L173.41079924782082,562.5789344785289 M10.660053498751893,522.0826238894056 L28.004224405633465,518.4286365699265 M28.004224405633465,518.4286365699265 L45.71196654345192,515.4704420695599 M45.71196654345192,515.4704420695599 L63.70150435436426,513.2211973449636 M63.70150435436426,513.2211973449636 L81.88979713294668,511.6908732523031 M81.88979713294668,511.6908732523031 L100.19306386215567,510.8862509202737 M100.19306386215567,510.8862509202737 L118.52704599111377,510.8108912382046 M118.52704599111377,510.8108912382046 L136.80734105646002,511.4651413051132 M136.80734105646002,511.4651413051132 L154.94982961713646,512.8460816853404 M154.94982961713646,512.8460816853404 L172.87091375124135,514.947617195616 M10.660053498751893,522.0826238894056 L11.50840277627185,569.7275095643535 M173.41079924782082,562.5789344785289 L155.52364464867398,560.4733995993565 M155.52364464867398,560.4733995993565 L137.41552942335255,559.0898304616176 M137.41552942335255,559.0898304616176 L119.16989894023902,558.4343347620314 M119.16989894023902,558.4343347620314 L100.87071913492122,558.5098379287231 M100.87071913492122,558.5098379287231 L82.60223832495802,559.315992151709 M82.60223832495802,559.315992151709 L64.44856095023982,560.8492292287915 M64.44856095023982,560.8492292287915 L46.49331444792165,563.1027541160331 M46.49331444792165,563.1027541160331 L28.81938684197121,566.0665755200391 M28.81938684197121,566.0665755200391 L11.50840277627185,569.7275095643535 M173.41079924782082,562.5789344785289 L186.45389171059432,592.1784022786264 M185.9376007723878,544.491004069212 L186.45389171059432,592.1784022786264 M172.87091375124135,514.947617195616 L185.9376007723878,544.491004069212 M125.00715012562108,568.9184148738184 L10.660053498751893,522.0826238894056 M125.00715012562108,568.9184148738184 L131.7294134242843,564.0102855412172 M131.7294134242843,564.0102855412172 L139.24757511996353,559.5097798356542 M139.24757511996353,559.5097798356542 L147.48690981450645,555.4606905795814 M147.48690981450645,555.4606905795814 L156.36576511246142,551.9023596591339 M156.36576511246142,551.9023596591339 L165.79646059014897,548.869297962201 M165.79646059014897,548.869297962201 L175.68614678431035,546.3908543158016 M175.68614678431035,546.3908543158016 L185.9376007723878,544.491004069212 M125.64062884284112,616.6519820463145 L11.50840277627185,569.7275095643535 M125.00715012562108,568.9184148738184 L125.64062884284112,616.6519820463145 M186.45389171059432,592.1784022786264 L176.2220285439326,594.0818498419976 M176.2220285439326,594.0818498419976 L166.35127592695216,596.5649847061286 M166.35127592695216,596.5649847061286 L156.93867274606345,599.6037848635535 M156.93867274606345,599.6037848635535 L148.07689197316554,603.1688444704096 M148.07689197316554,603.1688444704096 L139.85344652990204,607.2255857354743 M139.85344652990204,607.2255857354743 L132.34983189572017,611.7345906887806 M132.34983189572017,611.7345906887806 L125.64062884284112,616.6519820463145" stroke="black"  stroke-width="4"  fill="red"/></svg>